<?xml version="1.0" encoding="UTF-8" standalone="no"?>
<!-- Uploaded to: SVG Repo, www.svgrepo.com, Generator: SVG Repo Mixer Tools -->

<svg
   width="800px"
   height="800px"
   viewBox="0 0 1024 1024"
   class="icon"
   version="1.1"
   id="svg14"
   sodipodi:docname="candy-1-svgrepo-com.svg"
   inkscape:version="1.2.2 (b0a8486541, 2022-12-01)"
   xmlns:inkscape="http://www.inkscape.org/namespaces/inkscape"
   xmlns:sodipodi="http://sodipodi.sourceforge.net/DTD/sodipodi-0.dtd"
   xmlns="http://www.w3.org/2000/svg"
   xmlns:svg="http://www.w3.org/2000/svg">
  <defs
     id="defs18" />
  <sodipodi:namedview
     id="namedview16"
     pagecolor="#ffffff"
     bordercolor="#000000"
     borderopacity="0.25"
     inkscape:showpageshadow="2"
     inkscape:pageopacity="0.0"
     inkscape:pagecheckerboard="0"
     inkscape:deskcolor="#d1d1d1"
     showgrid="false"
     inkscape:zoom="0.46492271"
     inkscape:cx="463.51791"
     inkscape:cy="415.12276"
     inkscape:window-width="1366"
     inkscape:window-height="696"
     inkscape:window-x="0"
     inkscape:window-y="40"
     inkscape:window-maximized="1"
     inkscape:current-layer="svg14" />
  <path
     d="m 719.09157,546.01729 c 0,0 86.32994,96.44781 154.1047,130.71504 41.21966,28.60398 143.37673,49.56489 97.43772,-37.70892 -18.29044,-34.75068 -56.65546,-53.30586 15.30918,-103.14701 14.88323,-10.30204 60.93743,-37.84705 -6.23878,-69.15604 -3.9942,0.47194 -49.96777,-29.65146 -8.2071,-80.30986 0,0 50.11741,-77.12142 -26.6702,-70.36466 -21.50191,5.44454 -110.50232,3.22298 -200.90703,117.10944 z m -431.73027,-2.0489 c 0,0 -86.32994,96.45932 -154.1047,130.72655 -41.219669,28.59248 -143.376765,49.5649 -97.437727,-37.70892 18.290437,-34.76219 56.655462,-53.30586 -15.309176,-103.14701 -14.8832824,-10.35959 -61.006491,-37.84705 6.238777,-69.15604 3.982688,0.47194 49.967769,-29.66296 8.2071,-80.32137 0,0 -50.117408,-77.12142 26.670196,-70.36466 21.4904,5.45605 110.50232,3.22299 200.90703,117.10944 z"
     fill="#f09ac1"
     id="path2" />
  <path
     d="m 723.25843,540.7339 c 0,0 75.68258,84.54578 135.07758,114.57709 36.13195,25.07021 125.67337,43.45274 85.40908,-33.0471 -16.03434,-30.46871 -49.65698,-46.73327 13.42143,-90.41622 13.04158,-9.03587 53.42098,-33.17372 -5.46756,-60.62664 -3.4532,0.41438 -43.79806,-25.99107 -7.19416,-70.39919 0,0 43.92467,-67.61361 -23.37815,-61.67411 -18.84295,4.77692 -96.85068,2.82011 -176.11308,102.65205 z m -447.61498,-3.82154 c 0,0 -75.6941,84.54578 -135.08909,114.57709 -36.13196,25.07022 -125.673375,43.45274 -85.409091,-33.0471 16.034347,-30.46871 49.668491,-46.73327 -13.421428,-90.41622 -13.041576,-9.03587 -53.420967,-33.17372 5.479074,-60.62664 3.453198,0.41438 43.740503,-25.99107 7.182651,-70.39919 0,0 -43.924673,-67.61361 23.389658,-61.67411 18.831437,4.77693 96.850686,2.82011 176.113076,102.65206 z"
     fill="#e772ac"
     id="path4" />
  <path
     d="m 882.96881,383.50981 a 344.65214,344.65214 0 0 0 -129.56397,76.17754 c -1.63451,1.53092 0.81726,3.95966 2.44026,2.44026 A 340.58888,340.58888 0 0 1 883.88967,386.8479 c 2.10645,-0.69064 1.15106,-4.01722 -0.92086,-3.33809 z m 44.44266,111.92964 a 630.20856,630.20856 0 0 1 -166.90455,-7.10207 c -2.17552,-0.39136 -3.10788,2.93522 -0.90934,3.32658 a 633.15529,633.15529 0 0 0 167.75633,7.22869 c 2.19854,-0.19568 2.21005,-3.64888 0,-3.4532 z m -27.16516,130.8877 c -27.62558,-9.20852 -53.9965,-21.59399 -79.76886,-35.08448 -12.66172,-6.60712 -25.07021,-13.46748 -37.53626,-20.31632 -12.46604,-6.84884 -24.97813,-14.11206 -35.11902,-24.37957 -1.56545,-1.58847 -4.00571,0.85179 -2.44026,2.44026 9.41572,9.53082 20.71919,16.50628 32.35646,23.02131 q 19.41848,10.84304 39.13624,21.22566 c 26.60113,14.05451 53.8814,26.96947 82.49689,36.43123 2.11796,0.70215 3.0158,-2.63594 0.90935,-3.32658 z M 86.765048,389.39176 A 340.56586,340.56586 0 0 1 214.7981,464.68297 c 1.63452,1.51941 4.07478,-0.92085 2.45177,-2.44026 A 344.62912,344.62912 0 0 0 87.67439,386.06518 c -2.117961,-0.69064 -3.027303,2.64745 -0.909342,3.32658 z m -43.5218,112.04475 a 633.17831,633.17831 0 0 0 167.756342,-7.2287 c 2.18702,-0.37985 1.25466,-3.70643 -0.92086,-3.32658 a 629.63303,629.63303 0 0 1 -166.835482,7.10208 c -2.221557,-0.19568 -2.198536,3.25751 0,3.4532 z m 28.074497,130.76108 c 27.947879,-9.20853 54.560525,-21.80119 80.574605,-35.42981 13.19122,-6.90639 26.2328,-14.07753 39.26286,-21.2717 12.23583,-6.73373 24.17238,-13.96242 34.09457,-23.96519 1.56545,-1.57696 -0.87481,-4.02873 -2.44026,-2.44026 -9.69197,9.80708 -21.42133,16.79405 -33.38091,23.42419 q -18.58971,10.3596 -37.37511,20.27027 c -26.33638,13.9279 -53.328877,26.71624 -81.668119,36.08592 -2.09494,0.69064 -1.151066,4.02873 0.920853,3.32658 z"
     fill="#fcc3df"
     id="path6" />
  <path
     d="m 495.32436,237.71581 a 283.88737,274.28748 0 1 0 0,548.57497 283.88737,274.28748 0 1 0 0,-548.57497 z"
     fill="#f6b1d0"
     id="path8" />
  <path
     d="m 493.62079,238.03811 a 265.89621,256.90639 0 1 0 0,513.81277 265.89621,256.90639 0 1 0 0,-513.81277 z"
     fill="#fcd2e8"
     id="path10" />
  <path
     d="m 362.30719,333.26578 c -22.15801,16.5178 -42.25562,35.5219 -56.73603,59.25687 A 167.98655,167.98655 0 0 0 281.89373,468.493 c -0.14964,2.23307 3.30356,2.21005 3.4532,0 a 167.16929,167.16929 0 0 1 23.20549,-74.22073 c 13.81279,-23.27455 33.96795,-41.95635 55.50439,-58.01371 1.76113,-1.31222 0,-4.3165 -1.74962,-2.98127 z"
     fill="#ffffff"
     id="path12" />
</svg>
