<?xml version="1.0" encoding="windows-1252"?>
<!-- Generator: Adobe Illustrator 15.0.0, SVG Export Plug-In . SVG Version: 6.00 Build 0)  -->
<!DOCTYPE svg PUBLIC "-//W3C//DTD SVG 1.1//EN" "http://www.w3.org/Graphics/SVG/1.1/DTD/svg11.dtd">
<svg version="1.1" id="&#12524;&#12452;&#12516;&#12540;_1" xmlns="http://www.w3.org/2000/svg" xmlns:xlink="http://www.w3.org/1999/xlink" x="0px" y="0px" width="141.732px" height="141.732px" viewBox="0 0 141.732 141.732" style="enable-background:new 0 0 141.732 141.732;" xml:space="preserve">
<g>
	<path style="fill-rule:evenodd;clip-rule:evenodd;fill:#F3F3F3;" d="M71.778,32.411l59.024,29.535c0.503,0.278,0.503,0.73,0,1.009   L71.778,95.581c-0.503,0.278-1.322,0.278-1.825,0L10.928,62.955c-0.503-0.278-0.503-0.73,0-1.009l59.025-29.535   C70.456,32.132,71.275,32.132,71.778,32.411z"/>
	<path style="fill-rule:evenodd;clip-rule:evenodd;fill:#F3F3F3;" d="M21.709,70.283c1.02,2.521,5.867,14.191,8.717,15.933   c0.091,0.094,36.604,21.886,36.604,21.886s2.168,1.367,3.15,1.367c0,0.003,1.089,0.138,2.232,0c0.984,0,3.209-1.367,3.209-1.367   s36.453-21.792,36.545-21.886c3.198-1.956,8.909-16.415,8.909-16.415l-1.493,0.725L71.778,96.948c-0.503,0.279-1.322,0.279-1.825,0   L21.709,70.283z"/>
	<path style="fill-rule:evenodd;clip-rule:evenodd;fill:#E6E6E6;" d="M10.637,62.708c-0.177,0.548-0.08,1.408,0.292,1.614   l59.025,32.626c0.503,0.279,1.322,0.279,1.825,0l59.024-32.626c0.372-0.206,0.472-1.065,0.292-1.614   c-0.062,0.091-0.16,0.174-0.292,0.246L71.778,95.581c-0.503,0.278-1.322,0.278-1.825,0L10.928,62.955   C10.797,62.882,10.701,62.799,10.637,62.708z"/>
	<path style="fill-rule:evenodd;clip-rule:evenodd;fill:#E6E6E6;" d="M73.28,39.34l43.463,21.776c1.336,0.736,1.336,1.932,0,2.668   L73.28,87.812c-1.333,0.736-3.496,0.736-4.829,0L24.985,63.784c-1.333-0.736-1.333-1.932,0-2.668L68.451,39.34   C69.784,38.602,71.947,38.602,73.28,39.34z"/>
	<path style="fill-rule:evenodd;clip-rule:evenodd;fill:#BF7633;" d="M99.739,73.185c-0.176-0.656-0.348-1.582-0.612-2.176   c-0.378-0.846-0.939-2.345-1.688-3.375c-0.75-1.031-1.5-2.157-3.092-3.094c-1.596-0.937-1.221-0.749-2.532-1.686   s-2.061-1.501-2.813-2.251c-0.749-0.75-3.372-2.061-4.779-2.529c-1.405-0.468-2.904-1.218-4.78-1.97   c-1.874-0.75-3.186-1.125-5.624-1.405c-2.436-0.281-3.187,0.094-4.218,0c-1.03-0.094-5.155,1.03-6.466,1.124   s-7.875,3.469-9.279,4.218c-1.405,0.75-4.218,2.813-5.342,4.218c-1.127,1.405-3.094,4.499-3.094,4.499l-1.914,5.265l24.947,13.789   c1.333,0.736,3.496,0.736,4.829,0L99.739,73.185z"/>
	<path style="fill-rule:evenodd;clip-rule:evenodd;fill:#CB823F;" d="M67.574,53.37c-0.985,0.147-2.187-0.508-3.062-0.048   c-0.942,0.495-1.917,1.306-1.908,2.12c0.026,1.927,1.435,2.353,1.708,2.529c0.268,0.179,2.744,0.083,3.45-0.078   c0.699-0.161,1.459-0.099,2.016-0.881c0.56-0.778,1.044-1.076,0.613-1.986C70.007,54.213,69.399,53.1,67.574,53.37z"/>
	<path style="fill-rule:evenodd;clip-rule:evenodd;fill:#CB823F;" d="M71.792,58.996c-0.985,0.145-2.187-0.511-3.062-0.051   c-0.942,0.495-1.917,1.306-1.909,2.123c0.027,1.924,1.435,2.35,1.705,2.529c0.271,0.176,2.746,0.08,3.45-0.081   c0.701-0.16,1.461-0.099,2.018-0.878c0.56-0.781,1.041-1.078,0.613-1.988C74.225,59.839,73.617,58.723,71.792,58.996z"/>
	<path style="fill-rule:evenodd;clip-rule:evenodd;fill:#CB823F;" d="M88.664,58.996c-0.984,0.145-2.187-0.511-3.064-0.051   c-0.939,0.495-1.914,1.306-1.905,2.123c0.023,1.924,1.435,2.35,1.705,2.529c0.27,0.176,2.746,0.08,3.449-0.081   c0.699-0.16,1.459-0.099,2.019-0.878c0.56-0.781,1.041-1.078,0.612-1.988C91.095,59.839,90.489,58.723,88.664,58.996z"/>
	<path style="fill-rule:evenodd;clip-rule:evenodd;fill:#CB823F;" d="M61.669,72.21c-0.985,0.147-2.187-0.508-3.062-0.049   c-0.942,0.496-1.917,1.307-1.908,2.123c0.024,1.924,1.435,2.351,1.705,2.527c0.271,0.179,2.746,0.082,3.45-0.078   c0.699-0.16,1.461-0.099,2.018-0.878c0.56-0.782,1.041-1.079,0.613-1.989C64.102,73.053,63.495,71.939,61.669,72.21z"/>
	<path style="fill-rule:evenodd;clip-rule:evenodd;fill:#CB823F;" d="M72.072,63.495c-0.984,0.145-2.186-0.511-3.062-0.051   c-0.942,0.495-1.916,1.306-1.908,2.123c0.027,1.924,1.435,2.35,1.708,2.529c0.268,0.177,2.744,0.081,3.447-0.08   c0.702-0.161,1.462-0.099,2.019-0.878c0.56-0.782,1.042-1.079,0.613-1.989C74.506,64.338,73.898,63.222,72.072,63.495z"/>
	<path style="fill-rule:evenodd;clip-rule:evenodd;fill:#CB823F;" d="M91.475,74.742c-0.982,0.147-2.187-0.512-3.062-0.051   c-0.942,0.498-1.917,1.306-1.908,2.122c0.026,1.925,1.437,2.351,1.707,2.529c0.04,0.027,0.137,0.049,0.273,0.064l5.73-3.169   C93.825,75.448,93.185,74.488,91.475,74.742z"/>
	<path style="fill-rule:evenodd;clip-rule:evenodd;fill:#CB823F;" d="M74.323,72.21c-0.984,0.147-2.186-0.508-3.064-0.049   c-0.942,0.496-1.914,1.307-1.906,2.123c0.024,1.924,1.435,2.351,1.705,2.527c0.27,0.179,2.746,0.082,3.45-0.078   c0.698-0.16,1.458-0.099,2.018-0.878c0.56-0.782,1.041-1.079,0.612-1.989C76.754,73.053,76.149,71.939,74.323,72.21z"/>
	<path style="fill-rule:evenodd;clip-rule:evenodd;fill:#CB823F;" d="M80.228,66.587c-0.984,0.147-2.187-0.511-3.062-0.048   c-0.942,0.495-1.916,1.306-1.908,2.12c0.024,1.927,1.435,2.353,1.705,2.529c0.271,0.18,2.746,0.083,3.45-0.078   c0.698-0.161,1.459-0.099,2.018-0.88c0.56-0.779,1.041-1.076,0.613-1.986C82.661,67.43,82.054,66.313,80.228,66.587z"/>
	<path style="fill-rule:evenodd;clip-rule:evenodd;fill:#CB823F;" d="M72.916,83.74c-0.982,0.147-2.187-0.511-3.062-0.051   c-0.942,0.495-1.917,1.306-1.908,2.122c0.021,1.465,0.84,2.062,1.352,2.342c1.285,0.367,2.904,0.252,3.983-0.342l2.529-1.397   c0.125-0.278,0.131-0.575-0.078-1.017C75.349,84.583,74.741,83.468,72.916,83.74z"/>
	<path style="fill-rule:evenodd;clip-rule:evenodd;fill:#CB823F;" d="M83.322,76.99c-0.985,0.147-2.187-0.509-3.064-0.048   c-0.942,0.494-1.914,1.306-1.906,2.122c0.024,1.925,1.435,2.351,1.705,2.526c0.268,0.18,2.746,0.083,3.45-0.077   c0.698-0.161,1.459-0.099,2.018-0.878c0.56-0.781,1.041-1.078,0.613-1.988C85.752,77.833,85.147,76.72,83.322,76.99z"/>
	<path style="fill-rule:evenodd;clip-rule:evenodd;fill:#CB823F;" d="M67.292,81.208c-0.985,0.147-2.187-0.508-3.062-0.048   c-0.942,0.495-1.916,1.306-1.908,2.12c0.008,0.549,0.126,0.974,0.3,1.309l2.382,1.317c0.859,0.005,2.026-0.073,2.474-0.175   c0.701-0.16,1.461-0.099,2.018-0.88c0.56-0.779,1.041-1.076,0.613-1.986C69.726,82.052,69.118,80.938,67.292,81.208z"/>
	<path style="fill-rule:evenodd;clip-rule:evenodd;fill:#CB823F;" d="M52.39,67.148c-0.984,0.147-2.187-0.508-3.062-0.048   c-0.942,0.495-1.917,1.306-1.909,2.12c0.027,1.927,1.435,2.353,1.705,2.529c0.271,0.18,2.746,0.084,3.45-0.077   c0.698-0.16,1.461-0.099,2.018-0.88c0.56-0.779,1.041-1.076,0.613-1.986C54.823,67.992,54.215,66.878,52.39,67.148z"/>
	<path style="fill-rule:evenodd;clip-rule:evenodd;fill:#CB823F;" d="M79.947,59.277c-0.985,0.147-2.187-0.511-3.062-0.051   c-0.943,0.495-1.917,1.306-1.909,2.122c0.024,1.925,1.435,2.35,1.705,2.529c0.271,0.177,2.746,0.081,3.45-0.08   c0.698-0.161,1.459-0.099,2.018-0.878c0.56-0.781,1.041-1.079,0.613-1.989C82.38,60.12,81.772,59.004,79.947,59.277z"/>
	<path style="fill-rule:evenodd;clip-rule:evenodd;fill:#CB823F;" d="M63.355,61.807c-0.982,0.147-2.187-0.511-3.062-0.048   c-0.942,0.495-1.917,1.306-1.908,2.12c0.027,1.927,1.437,2.353,1.708,2.529c0.268,0.18,2.746,0.083,3.45-0.078   c0.698-0.161,1.458-0.099,2.018-0.88c0.557-0.779,1.041-1.076,0.61-1.986C65.789,62.649,65.181,61.533,63.355,61.807z"/>
	<path style="fill-rule:evenodd;clip-rule:evenodd;fill:#C77B36;" d="M74.864,52.546c-0.896-0.439-1.59-1.67-2.543-1.785   c-1.027-0.121-2.234,0-2.628,0.688c-0.923,1.633,0.054,2.805,0.195,3.113c0.14,0.305,2.28,1.654,2.955,1.921   c0.672,0.268,1.287,0.76,2.136,0.415c0.852-0.345,1.4-0.319,1.469-1.341C76.511,54.647,76.529,53.357,74.864,52.546z"/>
	<path style="fill-rule:evenodd;clip-rule:evenodd;fill:#C77B36;" d="M70.365,65.763c-0.896-0.439-1.59-1.673-2.543-1.786   c-1.027-0.121-2.234,0-2.628,0.688c-0.924,1.633,0.054,2.805,0.195,3.11c0.139,0.308,2.28,1.656,2.955,1.924   c0.671,0.268,1.287,0.76,2.136,0.415c0.851-0.345,1.399-0.318,1.47-1.344C72.014,67.861,72.03,66.573,70.365,65.763z"/>
	<path style="fill-rule:evenodd;clip-rule:evenodd;fill:#CE8B4F;" d="M80.902,54.625c-0.848-0.546-1.349-1.798-2.262-2.013   c-0.958-0.222-2.106-0.244-2.588,0.332c-1.146,1.378-0.468,2.604-0.394,2.917c0.072,0.313,1.903,1.991,2.534,2.387   c0.64,0.399,1.196,1.033,2.155,0.835c0.972-0.201,1.568-0.067,1.796-1.143C82.343,57.002,82.543,55.68,80.902,54.625z"/>
	<path style="fill-rule:evenodd;clip-rule:evenodd;fill:#CE8B4F;" d="M91.868,67.842c-0.849-0.546-1.347-1.798-2.259-2.013   c-0.961-0.225-2.109-0.243-2.591,0.332c-1.146,1.378-0.466,2.604-0.394,2.917c0.075,0.313,1.903,1.991,2.534,2.385   c0.641,0.4,1.199,1.035,2.158,0.837c0.968-0.2,1.568-0.066,1.793-1.143C93.311,70.216,93.509,68.896,91.868,67.842z"/>
	<path style="fill-rule:evenodd;clip-rule:evenodd;fill:#CE8B4F;" d="M67.686,73.466c-0.849-0.547-1.346-1.799-2.262-2.014   c-0.958-0.222-2.106-0.243-2.588,0.333c-1.146,1.378-0.466,2.604-0.394,2.917c0.075,0.313,1.903,1.991,2.535,2.387   c0.64,0.399,1.199,1.033,2.157,0.836c0.969-0.201,1.565-0.064,1.793-1.144C69.126,75.839,69.327,74.52,67.686,73.466z"/>
	<path style="fill-rule:evenodd;clip-rule:evenodd;fill:#CE8B4F;" d="M75.279,68.404c-0.849-0.546-1.349-1.798-2.262-2.012   c-0.961-0.225-2.106-0.244-2.588,0.332c-1.148,1.378-0.469,2.604-0.394,2.917c0.072,0.313,1.902,1.991,2.535,2.388   c0.639,0.398,1.195,1.033,2.154,0.835c0.969-0.201,1.567-0.067,1.795-1.144C76.72,70.778,76.917,69.458,75.279,68.404z"/>
	<path style="fill-rule:evenodd;clip-rule:evenodd;fill:#CE8B4F;" d="M68.81,59.406c-0.848-0.546-1.346-1.799-2.259-2.013   c-0.961-0.222-2.106-0.244-2.591,0.332c-1.146,1.378-0.466,2.604-0.394,2.917c0.075,0.313,1.906,1.992,2.535,2.388   c0.64,0.399,1.199,1.033,2.157,0.835c0.969-0.201,1.568-0.064,1.793-1.143C70.253,61.78,70.451,60.46,68.81,59.406z"/>
	<path style="fill-rule:evenodd;clip-rule:evenodd;fill:#CE8B4F;" d="M59.662,56.445c-0.637,0.771-1.957,1.13-2.291,2.021   c-0.359,0.956-0.535,2.139,0,2.695c1.282,1.333,2.62,0.723,2.946,0.674c0.327-0.048,2.179-1.764,2.621-2.358   c0.441-0.594,1.095-1.076,0.982-2.021c-0.113-0.947,0.062-1.496-0.934-1.828C62.108,55.337,60.864,54.998,59.662,56.445z"/>
	<path style="fill-rule:evenodd;clip-rule:evenodd;fill:#CE8B4F;" d="M54.039,70.786c-0.637,0.771-1.957,1.129-2.291,2.023   c-0.359,0.952-0.535,2.136,0,2.692c1.282,1.333,2.62,0.726,2.947,0.675c0.327-0.049,2.179-1.764,2.62-2.358   c0.442-0.591,1.095-1.075,0.982-2.021c-0.112-0.947,0.062-1.496-0.934-1.828C56.485,69.678,55.24,69.338,54.039,70.786z"/>
	<path style="fill-rule:evenodd;clip-rule:evenodd;fill:#CE8B4F;" d="M54.039,62.634c-0.637,0.768-1.957,1.126-2.291,2.021   c-0.359,0.953-0.535,2.136,0,2.695c1.282,1.33,2.62,0.723,2.947,0.672c0.327-0.048,2.179-1.764,2.62-2.358   c0.442-0.591,1.095-1.073,0.982-2.021c-0.112-0.945,0.062-1.496-0.934-1.828C56.485,61.522,55.24,61.183,54.039,62.634z"/>
	<path style="fill-rule:evenodd;clip-rule:evenodd;fill:#CE8B4F;" d="M83.001,69.381c-0.637,0.768-1.957,1.129-2.291,2.021   c-0.359,0.953-0.535,2.139,0,2.695c1.281,1.33,2.62,0.723,2.946,0.675c0.327-0.051,2.179-1.767,2.62-2.357   c0.442-0.595,1.096-1.077,0.982-2.021c-0.111-0.947,0.063-1.496-0.934-1.828C85.447,68.27,84.202,67.933,83.001,69.381z"/>
	<path style="fill-rule:evenodd;clip-rule:evenodd;fill:#CE8B4F;" d="M74.849,75.285c-0.641,0.771-1.96,1.13-2.294,2.021   c-0.358,0.956-0.532,2.139,0,2.695c1.284,1.333,2.62,0.723,2.946,0.675c0.327-0.048,2.18-1.764,2.621-2.357   c0.441-0.595,1.098-1.077,0.982-2.021c-0.113-0.947,0.061-1.496-0.935-1.828C77.294,74.177,76.048,73.837,74.849,75.285z"/>
	<path style="fill-rule:evenodd;clip-rule:evenodd;fill:#CE8B4F;" d="M62.194,77.536c-0.637,0.769-1.957,1.127-2.293,2.021   c-0.356,0.952-0.533,2.138,0,2.694c1.285,1.331,2.623,0.723,2.949,0.675c0.327-0.051,2.176-1.767,2.62-2.357   c0.442-0.595,1.095-1.076,0.982-2.023c-0.115-0.945,0.062-1.497-0.934-1.828C64.64,76.426,63.396,76.088,62.194,77.536z"/>
	<path style="fill-rule:evenodd;clip-rule:evenodd;fill:#CE8B4F;" d="M77.939,63.195c-0.637,0.769-1.956,1.127-2.291,2.021   c-0.358,0.953-0.535,2.136,0,2.695c1.282,1.33,2.62,0.723,2.947,0.674c0.326-0.051,2.179-1.767,2.62-2.36   c0.441-0.592,1.095-1.073,0.982-2.021c-0.113-0.945,0.062-1.496-0.935-1.828C80.386,62.085,79.142,61.748,77.939,63.195z"/>
	<path style="fill-rule:evenodd;clip-rule:evenodd;fill:#D08F55;" d="M95.612,72.81c-0.354,0.939-0.529,2.102-0.023,2.668   l6.578-3.634l-0.005-0.046c-0.112-0.947,0.062-1.496-0.935-1.828c-0.875-0.292-2.122-0.632-3.321,0.816   C97.267,71.558,95.947,71.915,95.612,72.81z"/>
	<path style="fill-rule:evenodd;clip-rule:evenodd;fill:#CE8B4F;" d="M44.938,67.004c-0.894,0.439-2.253,0.23-2.958,0.918   c-0.763,0.747-1.475,1.804-1.22,2.561c0.615,1.817,2.162,1.748,2.492,1.828c0.327,0.078,2.749-0.851,3.383-1.236   c0.626-0.383,1.389-0.578,1.648-1.483c0.26-0.896,0.613-1.317-0.115-1.997C47.527,66.994,46.577,66.201,44.938,67.004z"/>
	<path style="fill-rule:evenodd;clip-rule:evenodd;fill:#CE8B4F;" d="M77.838,80.502c-0.894,0.438-2.253,0.229-2.958,0.918   c-0.762,0.747-1.475,1.804-1.22,2.559c0.615,1.82,2.162,1.751,2.491,1.831c0.158,0.037,0.807-0.158,1.505-0.418l3.311-1.83   c0.091-0.135,0.166-0.289,0.217-0.472c0.26-0.896,0.612-1.317-0.115-1.996C80.427,80.491,79.476,79.698,77.838,80.502z"/>
	<path style="fill-rule:evenodd;clip-rule:evenodd;fill:#C77B36;" d="M84.695,60.188c0.562-0.822,1.847-1.322,2.106-2.243   c0.275-0.987,0.351-2.197-0.241-2.701c-1.427-1.209-2.728-0.434-3.054-0.348c-0.326,0.088-2.016,2.029-2.393,2.671   c-0.378,0.64-0.977,1.188-0.758,2.106c0.22,0.91,0.107,1.461,1.129,1.673C82.383,61.533,83.648,61.724,84.695,60.188z"/>
	<path style="fill-rule:evenodd;clip-rule:evenodd;fill:#C77B36;" d="M86.946,77.622c0.562-0.821,1.847-1.322,2.104-2.243   c0.275-0.99,0.351-2.2-0.238-2.703c-1.43-1.207-2.73-0.434-3.054-0.345c-0.327,0.088-2.016,2.028-2.396,2.671   c-0.375,0.64-0.975,1.188-0.755,2.106c0.22,0.91,0.106,1.461,1.127,1.673C84.634,78.969,85.897,79.155,86.946,77.622z"/>
	<path style="fill-rule:evenodd;clip-rule:evenodd;fill:#C77B36;" d="M68.387,74.247c0.562-0.821,1.847-1.322,2.104-2.243   c0.275-0.987,0.351-2.197-0.238-2.701c-1.427-1.209-2.73-0.434-3.054-0.348c-0.327,0.089-2.016,2.029-2.396,2.672   c-0.375,0.64-0.975,1.188-0.755,2.106c0.219,0.91,0.107,1.461,1.127,1.673C66.075,75.594,67.338,75.783,68.387,74.247z"/>
	<path style="fill-rule:evenodd;clip-rule:evenodd;fill:#C77B36;" d="M58.546,71.155c0.562-0.824,1.847-1.322,2.104-2.243   c0.276-0.99,0.351-2.2-0.238-2.703c-1.429-1.208-2.73-0.434-3.054-0.345c-0.327,0.085-2.015,2.028-2.396,2.671   c-0.377,0.637-0.974,1.188-0.755,2.104c0.22,0.91,0.107,1.464,1.127,1.676C56.233,72.499,57.497,72.689,58.546,71.155z"/>
	<path style="fill-rule:evenodd;clip-rule:evenodd;fill:#C77B36;" d="M49.828,66.094c0.563-0.825,1.847-1.325,2.104-2.243   c0.278-0.991,0.354-2.2-0.238-2.704c-1.427-1.209-2.73-0.434-3.054-0.345c-0.327,0.086-2.015,2.029-2.396,2.668   c-0.375,0.64-0.974,1.191-0.755,2.106c0.22,0.91,0.107,1.464,1.127,1.675C47.516,67.438,48.779,67.628,49.828,66.094z"/>
	<path style="fill-rule:evenodd;clip-rule:evenodd;fill:#CB823F;" d="M55.144,57.532c-0.966,0.19-2.235-0.417-3.091,0.083   c-0.932,0.546-1.882,1.424-1.801,2.262c0.198,1.978,1.708,2.307,2.004,2.468c0.292,0.16,2.787-0.123,3.469-0.335   c0.672-0.208,1.416-0.203,1.884-1.006c0.466-0.797,0.899-1.116,0.413-1.978C57.583,58.252,56.902,57.189,55.144,57.532z"/>
	<path style="fill-rule:evenodd;clip-rule:evenodd;fill:#CB823F;" d="M63.299,66.812c-0.966,0.19-2.238-0.417-3.091,0.083   c-0.932,0.546-1.882,1.424-1.801,2.262c0.198,1.978,1.708,2.308,2.004,2.468c0.292,0.161,2.786-0.123,3.469-0.335   c0.672-0.208,1.416-0.203,1.884-1.006c0.466-0.797,0.899-1.116,0.41-1.978C65.737,67.531,65.055,66.469,63.299,66.812z"/>
	<path style="fill-rule:evenodd;clip-rule:evenodd;fill:#CB823F;" d="M48.188,76.61c0.217,0.054,0.431,0.072,0.646,0.032   c1.07-0.195,2.27-0.704,2.476-1.536c0.484-1.965-0.84-2.816-1.068-3.073c-0.222-0.257-2.69-0.864-3.413-0.899   c-0.707-0.037-1.413-0.305-2.13,0.303c-0.715,0.603-1.231,0.752-1.06,1.753c0.056,0.329,0.131,0.706,0.289,1.067L48.188,76.61z"/>
	<path style="fill-rule:evenodd;clip-rule:evenodd;fill:#CB823F;" d="M83.544,67.48c0.982,0.158,1.983,1.188,2.969,1.009   c1.07-0.198,2.27-0.707,2.476-1.537c0.484-1.967-0.841-2.815-1.067-3.075c-0.223-0.257-2.69-0.862-3.413-0.899   c-0.706-0.038-1.413-0.305-2.131,0.302c-0.712,0.603-1.231,0.755-1.06,1.753C81.473,65.931,81.759,67.191,83.544,67.48z"/>
	<path style="fill-rule:evenodd;clip-rule:evenodd;fill:#CB823F;" d="M90.294,74.509c0.982,0.161,1.984,1.191,2.966,1.01   c1.071-0.195,2.272-0.704,2.479-1.537c0.481-1.967-0.843-2.815-1.067-3.075c-0.226-0.257-2.693-0.861-3.413-0.899   c-0.709-0.035-1.413-0.302-2.133,0.302c-0.712,0.603-1.229,0.755-1.058,1.756C88.221,72.962,88.507,74.223,90.294,74.509z"/>
	<path style="fill-rule:evenodd;clip-rule:evenodd;fill:#CB823F;" d="M97.943,66.587c-0.984,0.147-2.187-0.511-3.064-0.048   c-0.939,0.495-1.913,1.306-1.905,2.12c0.023,1.927,1.435,2.353,1.705,2.529c0.27,0.18,2.746,0.083,3.449-0.078   c0.699-0.161,1.459-0.099,2.019-0.88c0.56-0.779,1.041-1.076,0.612-1.986C100.374,67.43,99.77,66.313,97.943,66.587z"/>
	<path style="fill-rule:evenodd;clip-rule:evenodd;fill:#C77B36;" d="M94.829,63.512c-0.897-0.437-1.588-1.67-2.544-1.783   c-1.027-0.124-2.234,0-2.625,0.685c-0.927,1.635,0.054,2.805,0.192,3.113c0.14,0.305,2.283,1.654,2.958,1.924   c0.669,0.268,1.284,0.76,2.136,0.415c0.848-0.346,1.396-0.321,1.467-1.344C96.477,65.612,96.493,64.325,94.829,63.512z"/>
	<path style="fill-rule:evenodd;clip-rule:evenodd;fill:#C77B36;" d="M81.05,72.51c-0.895-0.438-1.587-1.67-2.543-1.783   c-1.027-0.123-2.234,0-2.626,0.686c-0.925,1.635,0.054,2.805,0.193,3.112c0.14,0.305,2.283,1.653,2.957,1.925   c0.669,0.268,1.285,0.76,2.136,0.414c0.849-0.346,1.397-0.321,1.47-1.344C82.698,74.61,82.714,73.323,81.05,72.51z"/>
	<path style="fill-rule:evenodd;clip-rule:evenodd;fill:#C77B36;" d="M72.054,78.414c-0.896-0.437-1.589-1.67-2.545-1.782   c-1.028-0.123-2.235,0-2.625,0.686c-0.923,1.635,0.053,2.805,0.192,3.112c0.142,0.308,2.283,1.653,2.958,1.925   c0.669,0.268,1.285,0.76,2.136,0.414c0.849-0.345,1.397-0.32,1.47-1.343C73.7,80.515,73.716,79.228,72.054,78.414z"/>
	<path style="fill-rule:evenodd;clip-rule:evenodd;fill:#C77B36;" d="M74.192,56.534c-0.982,0.188-2.262-0.372-3.078,0.102   c-0.87,0.506-1.732,1.298-1.644,2.061c0.217,1.823,1.66,2.2,1.952,2.369c0.291,0.168,2.82,0.027,3.538-0.147   c0.717-0.174,1.539-0.131,2.028-0.926c0.49-0.792,0.969-1.103,0.375-1.986C76.84,57.227,76.048,56.181,74.192,56.534z"/>
	<path style="fill-rule:evenodd;clip-rule:evenodd;fill:#C77B36;" d="M57.713,77.009c-0.896-0.438-1.59-1.67-2.545-1.782   c-1.027-0.123-2.234,0-2.625,0.685c-0.926,1.636,0.053,2.806,0.193,3.113c0.021,0.045,0.091,0.118,0.192,0.206l4.021,2.222   c0.27,0.051,0.559,0.04,0.88-0.092c0.848-0.342,1.397-0.317,1.469-1.34C59.359,79.11,59.375,77.823,57.713,77.009z"/>
	<path style="fill-rule:evenodd;clip-rule:evenodd;fill:#D8AD7E;" d="M45.699,64.539c0,0-1.587,2.342-2.529,2.813   c0.011,0.23,1.028-0.431,1.124-0.281c0.094,0.147,0.364-1.29,1.405-1.97C45.715,65.077,45.699,64.539,45.699,64.539z M52.16,62.013   c0,0-0.056,0.626-0.182,1.375l-3.332,0.262l0.163,0.841c0,0,0.07-0.099,0.469-0.335c0.188-0.109,1.375-0.192,2.604-0.251   c-0.139,0.683-0.329,1.368-0.583,1.716c0.123,0.198,0.701-0.835,0.859-0.747c0.091,0.051-0.027-0.391-0.03-0.979   c1.365-0.059,2.698-0.088,2.698-0.088l0.904-0.714l-3.57,0.284c0.04-0.289,0.123-0.589,0.276-0.864   C52.438,62.479,52.16,62.013,52.16,62.013z M49.842,71.927c0,0-1.076-1.644-1.461-2.819c0.15-0.222,0.228-0.399,0.131-0.631   c-0.126-0.303-0.193-0.335-0.281-0.563c-0.088-0.228-0.747-0.532-0.846-0.562c-0.096-0.032-0.104,0.343,0,0.562   c0.107,0.22-0.064,0.206,0,0.843c0.067,0.637,0.343,0.996,0,1.405c-0.34,0.412-0.498,0.391-0.562,0.562   c-0.064,0.174,0.696-0.401,0.846-0.562c0.128-0.139,0.278-0.425,0.474-0.717c-0.005,0.147-0.024,0.251-0.072,0.265   c-0.172,0.048,1.038,0.779,1.258,2.037C49.344,71.771,49.842,71.927,49.842,71.927z M60.534,57.519c0,0-2.642,0.605-3.564,0.265   c-0.153,0.182,0.95,0.434,0.907,0.619c-0.046,0.182,1.132-0.712,2.264-0.458C60.168,57.937,60.534,57.519,60.534,57.519z    M54.691,71.854c0,0-0.021,0.222-0.064,0.56c-1.461,0.68-4.055,1.715-4.055,1.715l-0.655,1.095l4.63-2.248   c-0.134,0.869-0.366,2.005-0.717,2.486c0.123,0.198,0.701-0.835,0.859-0.746c0.131,0.074-0.179-0.9,0.072-1.842l1.523-0.742   l-0.444-0.671c0,0-0.016,0.106-0.249,0.425c-0.048,0.07-0.297,0.209-0.661,0.386C54.855,72.13,54.691,71.854,54.691,71.854z    M70.194,77.183c0,0-2.347-1.721-2.652-2.519c-0.195,0.014,0.26,0.876,0.112,0.958c-0.145,0.086,1.207,0.373,1.89,1.521   C69.573,77.161,70.194,77.183,70.194,77.183z M70.868,82.432c-0.42,0.522-1.684,2.05-2.393,2.302   c0.016,0.203,0.939-0.257,1.028-0.112c0.085,0.147,0.375-1.181,1.464-1.761c0.011-0.014,0.024-0.209,0.03-0.372   c0.38,0.16,0.732,0.3,0.854,0.329c0.26,0.064,1.178-0.145,1.405-0.563s0.401-0.824,0.28-1.405   c-0.119-0.581-0.562-1.407-0.562-1.407s0.447,1.072,0.281,1.407c-0.166,0.332-0.452,0.698-1.124,0.844   c-0.675,0.144-1.239,0.077-1.97-0.282c-0.731-0.358-1.403-0.805-1.687-0.842c-0.284-0.041-1.127-0.25-0.281,0.28   s1.352,0.935,1.687,1.124C70.047,82.067,70.459,82.255,70.868,82.432z M59.616,71.008c0,0,2.35,1.721,2.655,2.518   c0.195-0.013-0.26-0.875-0.115-0.958c0.147-0.085-1.204-0.371-1.887-1.518C60.24,71.03,59.616,71.008,59.616,71.008z    M70.724,66.509c0,0-1.239,2.633-1.978,3.041c0.053,0.201,0.827-0.37,0.942-0.225c0.115,0.142,0.121-1.295,1.129-2.136   C70.833,67.157,70.724,66.509,70.724,66.509z M72.164,57.219c0,0-2.35-1.721-2.655-2.521c-0.195,0.016,0.26,0.878,0.115,0.961   c-0.147,0.085,1.205,0.372,1.887,1.518C71.54,57.198,72.164,57.219,72.164,57.219z M80.567,58.073c0,0-2.831,0.779-3.623,0.525   c-0.121,0.16,0.818,0.34,0.786,0.514s1.065-0.726,2.417-0.554C80.183,58.547,80.567,58.073,80.567,58.073z M90.69,70.163   c0,0-0.316-0.383-0.693-0.891l1.219-2.487l-0.796-0.46c0,0,0.06,0.121,0.083,0.578c0.008,0.185-0.388,0.977-0.867,1.863   c-0.434-0.626-0.843-1.312-0.867-1.684c-0.189-0.03-0.016,0.878-0.188,0.929c-0.12,0.035,0.458,0.326,0.945,0.961   c-0.699,1.279-1.518,2.668-1.518,2.668l0.289,1.101l1.57-3.207c0.067,0.139,0.124,0.289,0.17,0.45   C90.062,70.013,90.69,70.163,90.69,70.163z M95.768,74.233c0,0,1.33-2.768,2.051-3.188c-0.052-0.19-0.809,0.385-0.924,0.251   c-0.114-0.136-0.136,1.288-1.221,2.249C95.655,73.581,95.768,74.233,95.768,74.233z M85.629,63.134c0,0-0.489-2.853-0.094-3.549   c-0.163-0.123-0.495,0.715-0.683,0.664c-0.188-0.048,0.664,1.084,0.268,2.39C85.126,62.676,85.629,63.134,85.629,63.134z    M85.95,68.57c0,0,0.487,2.853,0.094,3.549c0.16,0.126,0.495-0.712,0.683-0.664s-0.663-1.084-0.268-2.39   C86.45,69.027,85.95,68.57,85.95,68.57z M85.348,72.694c0,0-2.931,0.514-3.642,0.1c-0.129,0.168,0.729,0.519,0.68,0.715   c-0.049,0.197,1.112-0.696,2.454-0.281C84.877,73.222,85.348,72.694,85.348,72.694z M78.598,75.789c0,0,0.686,3.827,0.132,4.761   c0.227,0.169,0.693-0.956,0.955-0.891c0.266,0.066-0.929-1.457-0.375-3.209C79.3,76.401,78.598,75.789,78.598,75.789z    M59.758,80.004c0,0,0.219-0.544,0.211-0.575c-0.83-1.012-0.597-2.438-0.739-2.315c-0.136,0.121-0.813-0.629-0.896-0.431   C59.001,77.256,59.758,80.004,59.758,80.004z M76.176,55.487l-0.388-1.07l-2.032,6.482l0.346,0.121l-0.284,0.426   c0,0,0.469,5.157,0.281,5.626c-0.188,0.468-0.281,0.562-0.281,0.562h0.844l-0.26-6.507l0.171,0.059c0,0-0.069-0.107-0.147-0.56   C74.348,60.171,76.176,55.487,76.176,55.487z M78.729,70.513l0.289,1.103l2.917-5.956l-0.795-0.463c0,0,0.059,0.124,0.083,0.581   C81.245,66.241,78.729,70.513,78.729,70.513z M83.664,60.873c0.075-0.081-0.259-0.273-0.511-0.278   c-0.252-0.008-0.155-0.166-0.766-0.417c-0.609-0.254-1.07-0.161-1.276-0.696s-0.109-0.677-0.235-0.827   c-0.126-0.147,0.026,0.875,0.099,1.1c0.072,0.225,0.306,0.57,0.493,0.966c0.184,0.394,0.294,0.664,0.629,0.69   c0.334,0.027,0.398-0.021,0.647,0.006C82.993,61.442,83.59,60.953,83.664,60.873z M62.293,82.432   c0.075-0.064-0.23-0.255-0.463-0.278c-0.233-0.024-0.14-0.155-0.696-0.418c-0.557-0.262-0.987-0.214-1.161-0.695   c-0.172-0.479-0.078-0.597-0.19-0.733c-0.109-0.14-0.005,0.763,0.054,0.961c0.059,0.2,0.265,0.517,0.423,0.875   c0.158,0.356,0.249,0.597,0.56,0.646c0.311,0.048,0.369,0.008,0.6,0.051C61.648,82.878,62.221,82.496,62.293,82.432z    M46.823,69.038c0.059,0.137,0.182,0.287,0.251,0.399c0.016-0.134,0.048-0.316,0.03-0.399c-0.032-0.149,0.134-0.463,0-0.562   c-0.131-0.099-0.562-0.843-0.562-0.843s-0.447-0.447-0.563-0.281c-0.115,0.166-0.131,0.364,0,0.562   c0.134,0.198,0.431,0.431,0.563,0.563C46.676,68.607,46.724,68.808,46.823,69.038z M47.104,69.601   c0.042-0.024,0.019-0.086-0.03-0.163C47.063,69.55,47.061,69.63,47.104,69.601z M52.687,59.729   c-0.059-0.137-0.182-0.286-0.251-0.401c-0.016,0.137-0.048,0.318-0.029,0.401c0.034,0.15-0.131,0.46,0,0.562   c0.134,0.099,0.562,0.843,0.562,0.843s0.45,0.447,0.565,0.281c0.112-0.166,0.131-0.364,0-0.563   c-0.134-0.198-0.431-0.431-0.565-0.562C52.837,60.16,52.786,59.957,52.687,59.729z M52.406,59.165   c-0.041,0.026-0.017,0.088,0.029,0.163C52.449,59.218,52.451,59.138,52.406,59.165z M54.657,76.318   c-0.059-0.137-0.182-0.286-0.251-0.399c-0.016,0.137-0.048,0.316-0.029,0.399c0.032,0.15-0.134,0.463,0,0.563   c0.131,0.099,0.562,0.843,0.562,0.843s0.447,0.447,0.562,0.281s0.134-0.364,0-0.563c-0.134-0.197-0.431-0.431-0.562-0.562   C54.807,76.749,54.756,76.549,54.657,76.318z M54.376,75.757c-0.04,0.026-0.019,0.085,0.029,0.162   C54.419,75.81,54.421,75.728,54.376,75.757z M63.524,68.931c0.149,0.005,0.345-0.04,0.481-0.053   c-0.118-0.075-0.268-0.185-0.354-0.206c-0.152-0.035-0.355-0.324-0.508-0.247c-0.15,0.078-1.012,0.142-1.012,0.142   s-0.6,0.208-0.508,0.383c0.091,0.179,0.259,0.284,0.495,0.249c0.241-0.032,0.586-0.201,0.765-0.263S63.27,68.918,63.524,68.931z    M64.169,68.923c-0.005-0.048-0.072-0.056-0.163-0.045C64.1,68.939,64.175,68.977,64.169,68.923z M70.694,59.692   c-0.15-0.008-0.345,0.038-0.481,0.051c0.118,0.075,0.268,0.185,0.353,0.206c0.153,0.035,0.356,0.324,0.508,0.246   c0.15-0.078,1.012-0.142,1.012-0.142s0.6-0.207,0.509-0.383c-0.094-0.18-0.26-0.284-0.498-0.249   c-0.238,0.032-0.583,0.201-0.763,0.262C71.155,59.746,70.949,59.703,70.694,59.692z M70.049,59.697   c0.005,0.048,0.072,0.057,0.164,0.046C70.116,59.682,70.044,59.644,70.049,59.697z M76.689,78.368   c-0.104,0.097-0.2,0.258-0.28,0.356c0.131-0.024,0.307-0.046,0.377-0.089c0.126-0.074,0.466-0.005,0.512-0.16   c0.045-0.155,0.566-0.768,0.566-0.768s0.252-0.544,0.064-0.607c-0.188-0.064-0.369-0.03-0.503,0.149   c-0.134,0.182-0.246,0.53-0.318,0.693C77.032,78.104,76.866,78.211,76.689,78.368z M76.27,78.8c0.038,0.031,0.086-0.008,0.14-0.075   C76.302,78.743,76.227,78.765,76.27,78.8z M92.436,72.464c-0.104,0.094-0.2,0.257-0.278,0.356c0.128-0.024,0.308-0.048,0.375-0.089   c0.125-0.074,0.465-0.005,0.511-0.16s0.57-0.769,0.57-0.769s0.249-0.545,0.062-0.61c-0.185-0.064-0.369-0.027-0.503,0.153   c-0.134,0.182-0.244,0.53-0.319,0.69C92.778,72.199,92.612,72.304,92.436,72.464z M92.015,72.896   c0.038,0.031,0.086-0.009,0.143-0.075C92.05,72.839,91.973,72.86,92.015,72.896z M61.835,62.743   c0.153,0.008,0.346-0.04,0.482-0.053c-0.118-0.075-0.268-0.185-0.351-0.204c-0.152-0.035-0.359-0.324-0.508-0.246   c-0.153,0.078-1.012,0.139-1.012,0.139s-0.603,0.208-0.509,0.385c0.091,0.177,0.257,0.281,0.495,0.249s0.586-0.201,0.766-0.262   S61.581,62.732,61.835,62.743z M62.48,62.738c-0.006-0.051-0.07-0.056-0.164-0.048C62.414,62.751,62.485,62.792,62.48,62.738z    M80.394,63.305c0.153,0.008,0.346-0.038,0.482-0.053c-0.118-0.075-0.268-0.182-0.351-0.204c-0.153-0.035-0.358-0.324-0.509-0.246   c-0.152,0.078-1.012,0.142-1.012,0.142s-0.602,0.206-0.512,0.383c0.094,0.177,0.26,0.284,0.498,0.249   c0.238-0.032,0.586-0.201,0.766-0.262S80.14,63.294,80.394,63.305z M81.039,63.3c-0.005-0.051-0.069-0.056-0.163-0.048   C80.973,63.316,81.044,63.354,81.039,63.3z M64.546,72.874c-0.048-0.134-0.15-0.263-0.206-0.361   c-0.017,0.145-0.049,0.34-0.035,0.42c0.021,0.147-0.118,0.479-0.016,0.563c0.104,0.091,0.466,0.864,0.466,0.864   s0.452,0.56,0.602,0.394c0.158-0.18,0.198-0.423,0.038-0.677c-0.153-0.241-0.474-0.499-0.602-0.632   C64.667,73.315,64.629,73.104,64.546,72.874z M64.319,72.352c-0.032,0.038-0.017,0.094,0.021,0.161   C64.354,72.39,64.359,72.306,64.319,72.352z M76.692,67.614c-0.145-0.019-0.308,0.014-0.426,0.019   c0.126,0.083,0.292,0.201,0.369,0.225c0.147,0.048,0.389,0.327,0.514,0.273c0.129-0.053,1.004-0.024,1.004-0.024   s0.721-0.15,0.635-0.361c-0.094-0.225-0.3-0.372-0.605-0.345c-0.289,0.024-0.671,0.198-0.856,0.254   C77.153,67.706,76.941,67.644,76.692,67.614z M76.108,67.577c0.021,0.048,0.081,0.059,0.158,0.056   C76.163,67.563,76.085,67.521,76.108,67.577z M66.918,84.913c-0.11,0.085-0.201,0.232-0.281,0.321   c0.139-0.02,0.332-0.035,0.404-0.073c0.134-0.066,0.514,0.006,0.551-0.137c0.041-0.144,0.581-0.706,0.581-0.706   s0.241-0.506,0.027-0.567c-0.214-0.059-0.418-0.027-0.552,0.139c-0.136,0.166-0.233,0.488-0.305,0.638   C67.274,84.675,67.1,84.769,66.918,84.913z M66.489,85.301c0.043,0.029,0.091-0.005,0.147-0.066   C66.521,85.25,66.441,85.266,66.489,85.301z M84.068,80.132c-0.106,0.086-0.2,0.233-0.278,0.322c0.14-0.02,0.332-0.035,0.404-0.072   c0.131-0.067,0.514,0.005,0.552-0.137c0.04-0.145,0.578-0.707,0.578-0.707s0.24-0.506,0.026-0.567   c-0.211-0.059-0.415-0.026-0.551,0.14c-0.135,0.166-0.233,0.486-0.303,0.637C84.428,79.894,84.251,79.988,84.068,80.132z    M83.644,80.521c0.042,0.029,0.091-0.006,0.146-0.066C83.675,80.47,83.595,80.485,83.644,80.521z M91.539,63.846   c0.128,0.038,0.289,0.032,0.401,0.048c-0.1-0.099-0.23-0.241-0.303-0.278c-0.128-0.067-0.313-0.399-0.438-0.353   c-0.126,0.045-0.859-0.075-0.859-0.075s-0.509,0.083-0.417,0.281c0.088,0.198,0.237,0.337,0.438,0.353   c0.203,0.019,0.489-0.078,0.64-0.102S91.325,63.782,91.539,63.846z M92.079,63.972c-0.005-0.048-0.061-0.069-0.139-0.078   C92.023,63.975,92.085,64.025,92.079,63.972z M72.699,52.037c0.128,0.038,0.289,0.032,0.401,0.046   c-0.1-0.099-0.23-0.238-0.303-0.276c-0.128-0.067-0.313-0.401-0.438-0.356S71.5,51.379,71.5,51.379s-0.509,0.08-0.417,0.278   c0.088,0.198,0.238,0.34,0.439,0.356c0.203,0.016,0.489-0.078,0.64-0.104C72.311,51.885,72.485,51.97,72.699,52.037z    M73.239,52.163c-0.005-0.051-0.061-0.069-0.139-0.08C73.184,52.163,73.245,52.217,73.239,52.163z M72.699,73.688   c0.128,0.038,0.289,0.032,0.401,0.048c-0.1-0.099-0.23-0.24-0.303-0.275c-0.128-0.069-0.313-0.401-0.438-0.355   c-0.126,0.045-0.859-0.075-0.859-0.075s-0.509,0.083-0.417,0.28c0.088,0.199,0.238,0.338,0.439,0.356   c0.203,0.017,0.489-0.08,0.64-0.104C72.311,73.538,72.485,73.623,72.699,73.688z M73.239,73.813   c-0.005-0.049-0.061-0.07-0.139-0.078C73.184,73.815,73.245,73.87,73.239,73.813z M52.168,57.511   c-0.835,0.543-1.563,0.698-1.689,1.405c-0.126,0.707-0.03,1.1,0.281,1.686c0.313,0.589,0.827,1.009,1.125,1.127   c0.299,0.115,0.827,0.104,0.564-0.284c-0.265-0.386-0.902-1.052-0.846-1.405s0.115-0.979,0.281-1.124   c0.168-0.145,1.052-0.524,1.688-0.562c0.637-0.041,1.405-0.281,1.405-0.281s0.664-0.085-0.281-0.281   C53.752,57.596,53,56.967,52.168,57.511z M56.948,60.602c0,0-0.321,0.278-0.846,0.562c-0.522,0.286-1.807,0.083-1.686,0.281   c0.121,0.201,0.603,0.859,1.405,0.564c0.806-0.297,1.127-0.846,1.127-0.846V60.602z M54.697,65.382   c-0.359,0.38-0.715-0.236-1.125,0.562s-0.808,1.322-0.281,1.127c0.524-0.198,0.182-0.407,0.843-0.562   c0.661-0.158,1.21-0.251,1.687-0.565c0.479-0.311-0.07,0.42,0.562,0.284c0.634-0.139-1.641,1.143-1.125,1.124   c0.517-0.021,2.152-1.801,2.251-2.251c0.097-0.449,2.019-1.041-0.281-0.843c-2.302,0.198-2.607,0.468-2.813,0.562   S55.056,65.002,54.697,65.382z M53.292,69.038c0.067,0.188,0.219,0.193-0.281,0.843s-0.508,0.514-1.126,0.843   c-0.616,0.332-2.31,0.706-0.843,0.846c1.469,0.14,1.962-0.26,2.532-0.846c0.57-0.583,1.678-1.783,1.125-1.967   C54.143,68.573,53.223,68.851,53.292,69.038z M60.882,76.632c0.551,0.134,1.199,0.035,1.381,0.003   c-0.225-0.003-1.044-0.458-1.662-0.565c-0.643-0.112-1.098-0.059-1.687-0.28c-0.591-0.226-0.64-0.185-0.843-0.565   c-0.204-0.38-1.264-0.835-1.124-0.28c0.136,0.556,0.607,1.017,1.124,1.407c0.514,0.389,1.054,0.669,1.405,0.563   C59.828,76.806,60.176,76.458,60.882,76.632z M74.38,71.008c0.551,0.134,1.199,0.032,1.381,0.002   c-0.225-0.002-1.047-0.458-1.662-0.567c-0.643-0.112-1.098-0.056-1.686-0.281c-0.592-0.222-0.641-0.182-0.844-0.562   c-0.206-0.38-1.263-0.835-1.126-0.281c0.136,0.554,0.61,1.017,1.126,1.405c0.514,0.391,1.055,0.672,1.405,0.564   C73.325,71.182,73.673,70.832,74.38,71.008z M63.133,76.913c-0.222,0.106,1.4,0.35,1.405,0.281c0.008-0.07,0.45,0.722,0.563,1.124   c0.112,0.4-0.241,1.362-0.281,1.686c-0.037,0.327-0.549,1.178-0.281,0.846c0.268-0.335,0.648-0.452,1.125-0.846   c0.479-0.394,0.308-1.63,0.281-1.968c-0.024-0.336-0.431-0.904-1.124-1.404C64.129,76.131,63.355,76.806,63.133,76.913z    M80.003,72.694c0,0,0.089,0.812,0.284,1.405c0.192,0.595,0.458,0.872,0,1.124c-0.461,0.254-0.812,0.244-1.127,0.281   c-0.313,0.04-0.69,0.043,0.281,0.564c0.974,0.52,0.99,0.434,1.407,0.281c0.415-0.152,1.245-0.83,1.124-1.407   c-0.12-0.576-0.417-1.858-0.562-1.968c-0.147-0.109-1.97-1.124-1.97-1.124L80.003,72.694z M67.914,59.759   c0,0,0.085,0.812,0.281,1.405c0.193,0.597,0.458,0.873,0,1.127c-0.46,0.251-0.811,0.244-1.124,0.281   c-0.315,0.038-0.693,0.041,0.281,0.562c0.972,0.52,0.99,0.434,1.405,0.281c0.415-0.152,1.244-0.83,1.124-1.405   c-0.121-0.578-0.415-1.86-0.562-1.97c-0.147-0.11-1.967-1.124-1.967-1.124L67.914,59.759z M61.728,55.541   c0.19,0.292,1.208,1.06,1.125,1.688c-0.086,0.629-0.126,0.68-0.563,1.405c-0.326,0.541-2.061,1.255-1.346,1.186   c0.712-0.069-0.262,0.161-0.342,0.22c-0.236,0.177,1.373-0.407,2.259-0.929l0.008,0.038c0,0,0.07-0.099,0.469-0.334   c0.409-0.241,5.548-0.354,5.548-0.354l0.905-0.712l-6.273,0.495c0.121-0.479,0.241-1.041,0.179-1.295   C63.618,56.617,61.535,55.252,61.728,55.541z M65.663,53.012c-0.471-0.029-2,0.474-2.249,0.843   c-0.249,0.37-0.511,0.506-0.281,1.124c0.228,0.619,0.321,0.913,1.124,1.125c0.693,0.182,1.282,0.763,0.945,0.259   c-0.337-0.506,0.107,0.014,0.18,0.021c0.527,0.062-1.207-0.873-1.125-1.124c0.083-0.251-0.201-0.519,0.562-0.843   c0.763-0.324,0.873-0.605,1.408-0.563c0.532,0.043,1.686-0.281,1.686-0.281S66.137,53.038,65.663,53.012z M80.003,54.698   c0.145,0.219,0.656,0.396,0.564,1.124c-0.094,0.728,0.641,0.672-0.28,1.127c-0.923,0.452-3.017,0.345-1.97,0.562   s1.321,0.174,1.97,0c0.645-0.177,1.21-0.401,1.124-0.846c-0.089-0.441-0.385-1.298-0.563-1.687   c-0.179-0.388-2.251-1.686-2.251-1.686L80.003,54.698z M89.563,59.478c0.19,0.562,0.704,1.079,0.752,1.312   c0.046,0.235-0.609,1.595-1.314,1.782c-0.32,0.086-0.642,0.15-0.896,0.198l-1.654-4.74l-0.824,0.324c0,0,0.121,0.038,0.445,0.332   c0.332,0.3,1.648,5.174,1.648,5.174l1.001,0.68l-0.472-1.357c0.145,0.024,0.306,0.016,0.472-0.048   c0.61-0.235,1.22-1.453,1.407-1.405c0.188,0.045,0.701,0.187,0.844,0c0.139-0.188,0.326-0.752,0-1.127   C90.642,60.228,89.376,58.916,89.563,59.478z M53.011,76.351c0,0-0.23,0.975,0.281,1.405c0.508,0.431-0.166-0.088,0.843,0.843   c1.009,0.932,0.423,0.349,1.687,1.124c1.263,0.776,1.97,0.847,1.97,0.847s-1.705-1.293-2.251-1.689   c-0.543-0.394-1.146-0.883-1.405-1.124s-0.843-1.124-0.843-1.124L53.011,76.351z M64.25,67.422c0,0-0.774-0.613-1.389-0.34   c-0.61,0.273,0.155-0.11-1.122,0.396c-1.266,0.5-0.498,0.228-1.748,1.017c-1.247,0.787-1.638,1.386-1.638,1.386   s1.898-0.958,2.492-1.274c0.594-0.318,1.301-0.645,1.63-0.773c0.332-0.131,1.392-0.278,1.392-0.278L64.25,67.422z M80.003,81.693   c-0.38,0.6-0.455,1.132-1.686,1.686c-1.231,0.554-2.529,0.843-2.529,0.843s-2.466-0.117-0.846,0.281   c1.621,0.402,0.749,0.463,1.97,0.281c1.22-0.179,1.223-0.123,1.967-0.563c0.744-0.438,1.999-1.779,1.97-1.967   S80.384,81.094,80.003,81.693z M90.69,73.818c0.555,0.263,1.365,0.61,1.687,0.563c0.514-0.072,1.501,0.075,1.97-0.281   c0.466-0.354,0.875-0.466,0.843-0.843c-0.034-0.378,0.032-1.041-0.28-0.843c-0.316,0.195-0.956,0.848-1.408,1.124   C93.048,73.813,90.69,73.818,90.69,73.818z M98.843,66.79c0,0-0.096,0.792,0.564,1.124c0.563,0.281,0.578,1.817,0,2.061   c-0.58,0.246-2.352-0.056-2.531-0.094c-0.177-0.035-1.614,0.49,0,0.562c1.613,0.072,2.559,0.377,3.094,0   c0.535-0.375,1.001-0.535,0.844-1.686c-0.161-1.151-0.563-1.686-0.563-1.686L98.843,66.79z M70.162,53.854   c0,0,0.867,0.819,1.688,1.124c0.822,0.306,2.617,1.341,2.717,0.635c0.099-0.707,0.086-1.221,0.174-1.563   c0.086-0.342-1.215,1.042-1.215,1.042L70.162,53.854z M90.69,62.01c-0.219,0.014,1.475,0.795,1.687,0.843   c0.843,0.187,1.687,0.854,1.97,1.312c0.281,0.458,0.563,2.063,0.563,2.063s-0.14-0.913,0.403-0.361   c0.546,0.551,0.396-0.385,0.438-0.484c0.084-0.201-0.981-1.504-1.404-2.249c-0.426-0.747-1.408-0.843-1.408-0.843   S90.907,61.994,90.69,62.01z M87.034,64.258c0.386,0.722,0.626,0.833,0.281,1.405c-0.345,0.573-0.107,0.937-1.124,0.846   c-1.017-0.094-3.375,0-3.375,0s1.356,0.79,2.531,0.843c1.173,0.051,2.066,0.193,2.249-0.281c0.182-0.477,0.843-1.689,0.843-1.689   S86.649,63.536,87.034,64.258z M85.067,68.477c0,0,0.468,5.155,0.28,5.623c-0.188,0.469-0.28,0.562-0.28,0.562h0.843l-0.281-7.028   L85.067,68.477z M66.228,75.789c0,0,0.468,5.154,0.281,5.622c-0.188,0.469-0.281,0.563-0.281,0.563h0.843l-0.281-7.03   L66.228,75.789z M65.943,63.415c0,0,0.472,5.155,0.284,5.623c-0.19,0.469-0.284,0.563-0.284,0.563h0.846l-0.281-7.029   L65.943,63.415z M72.193,76.901l-1.181-0.462l4.21,5.815l0.565-0.562c0,0-0.107,0.002-0.461-0.175   C74.961,81.337,72.193,76.901,72.193,76.901z M64.667,65.773l0.905-0.712l-7.084,0.56l0.163,0.84c0,0,0.069-0.102,0.468-0.337   C59.528,65.883,64.667,65.773,64.667,65.773z M87.315,76.913c0.192-0.198,0.447-0.453,0.664-0.67   c-0.249,0.137-0.635,0.279-1.227,0.389c-1.619,0.297-1.723,0.265-1.97,0.281c-0.243,0.016-0.355,0.016-0.562-0.281   c-0.203-0.297-0.844-0.843-0.844-0.843s-0.12,0.735,0,1.124c0.12,0.388,0.156,0.926,0.844,0.843   c0.318-0.04,0.406-0.048,0.489-0.072c0.099-0.03,0.19-0.075,0.637-0.209C86.173,77.226,86.897,77.341,87.315,76.913z    M88.439,75.789l-0.46,0.454C88.413,76.008,88.439,75.789,88.439,75.789z"/>
	<path style="fill-rule:evenodd;clip-rule:evenodd;fill:#728F41;" d="M73.13,65.197c0,0-0.61,2.077-0.76,2.272   c-0.155,0.204,2.314,0.809,2.314,0.809l0.538-2.39C75.223,65.888,74.854,65,73.13,65.197z"/>
	<path style="fill-rule:evenodd;clip-rule:evenodd;fill:#607836;" d="M72.37,67.47c-0.324,0.081-0.287,1.826,0.666,1.534   c0.812-0.249,1.402-0.367,1.648-0.725c0.223-0.327-0.428-0.744-0.795-0.985C73.516,67.05,72.678,67.393,72.37,67.47z"/>
	<path style="fill-rule:evenodd;clip-rule:evenodd;fill:#728F41;" d="M72.247,63.977c0,0-3.209,0.859-3.209,1.371   c0,0.16,1.29,1.868,1.071,1.713c-0.222-0.155,2.168-1.352,2.851-1.713C73.098,65.275,72.247,63.977,72.247,63.977z"/>
	<path style="fill-rule:evenodd;clip-rule:evenodd;fill:#7EA63E;" d="M76.508,66.632c0,0,1.427,2.821,1.881,2.73   c0.147-0.029,1.483-1.627,1.382-1.373c-0.104,0.251-1.742-1.814-2.222-2.388C77.455,65.487,76.508,66.632,76.508,66.632z"/>
	<path style="fill-rule:evenodd;clip-rule:evenodd;fill:#7EA63E;" d="M69.934,71.693c0,0-1.429,2.821-1.884,2.729   c-0.145-0.029-1.482-1.627-1.378-1.372c0.102,0.251,1.742-1.815,2.221-2.388C68.987,70.548,69.934,71.693,69.934,71.693z"/>
	<path style="fill-rule:evenodd;clip-rule:evenodd;fill:#728F41;" d="M76.697,71.704c0,0-3.085,0.91-3.329,0.535   c-0.08-0.12,0.192-2.111,0.075-1.871c-0.118,0.241,2.55-0.019,3.308-0.072C76.901,70.283,76.697,71.704,76.697,71.704z"/>
	<path style="fill-rule:evenodd;clip-rule:evenodd;fill:#728F41;" d="M66.624,68.728c0,0-3.225,0.512-3.292,0.969   c-0.021,0.147,1.065,1.89,0.857,1.716c-0.209-0.175,2.358-1.109,3.078-1.39C67.41,69.967,66.624,68.728,66.624,68.728z"/>
	<path style="fill-rule:evenodd;clip-rule:evenodd;fill:#728F41;" d="M61.281,67.604c0,0-3.225,0.512-3.292,0.969   c-0.024,0.147,1.065,1.89,0.856,1.715c-0.209-0.174,2.358-1.108,3.078-1.392C62.065,68.843,61.281,67.604,61.281,67.604z"/>
	<path style="fill-rule:evenodd;clip-rule:evenodd;fill:#728F41;" d="M71.216,61.333c0,0,2.778-1.737,3.174-1.427   c0.128,0.102,0.544,2.235,0.586,1.954c0.043-0.276-2.639,0.621-3.349,0.837C71.492,62.743,71.216,61.333,71.216,61.333z"/>
	<path style="fill-rule:evenodd;clip-rule:evenodd;fill:#7EA63E;" d="M69.249,59.925c0,0,2.778-1.737,3.174-1.424   c0.129,0.102,0.541,2.235,0.584,1.954c0.043-0.278-2.636,0.618-3.346,0.837C69.522,61.338,69.249,59.925,69.249,59.925z"/>
	<path style="fill-rule:evenodd;clip-rule:evenodd;fill:#728F41;" d="M64.552,62.542c0,0,3.226,0.511,3.292,0.969   c0.024,0.147-1.065,1.889-0.856,1.713c0.209-0.171-2.358-1.108-3.078-1.389C63.768,63.782,64.552,62.542,64.552,62.542z"/>
	<path style="fill-rule:evenodd;clip-rule:evenodd;fill:#7EA63E;" d="M59.209,63.948c0,0,3.225,0.511,3.292,0.969   c0.021,0.147-1.065,1.89-0.856,1.716c0.208-0.174-2.358-1.108-3.078-1.389C58.423,65.187,59.209,63.948,59.209,63.948z"/>
	<path style="fill-rule:evenodd;clip-rule:evenodd;fill:#728F41;" d="M65.395,59.448c0,0,3.225,0.512,3.295,0.969   c0.021,0.147-1.068,1.89-0.857,1.715c0.209-0.174-2.36-1.108-3.081-1.389C64.611,60.688,65.395,59.448,65.395,59.448z"/>
	<path style="fill-rule:evenodd;clip-rule:evenodd;fill:#728F41;" d="M75.964,60.653c0,0-1.595-0.244-1.993,0.345   c-0.396,0.589-0.873,0.996-0.664,1.379c0.212,0.382,1.138,0.984,1.662,1.035c0.522,0.048,1.611-0.433,1.659-0.69   C76.677,62.465,75.964,60.653,75.964,60.653z M75.759,60.923c0,0,0.569,1.451,0.532,1.657c-0.04,0.203-0.91,0.591-1.327,0.551   c-0.421-0.04-1.162-0.522-1.33-0.827c-0.166-0.305,0.214-0.631,0.532-1.105C74.484,60.728,75.759,60.923,75.759,60.923z"/>
	<path style="fill-rule:evenodd;clip-rule:evenodd;fill:#728F41;" d="M62.729,65.074c0,0-1.258,1.025-1.052,1.737   c0.206,0.709,0.214,1.352,0.659,1.461c0.447,0.11,1.544-0.163,1.935-0.519c0.391-0.359,0.729-1.513,0.557-1.729   C64.654,65.808,62.729,65.074,62.729,65.074z M62.81,65.417c0,0,1.542,0.589,1.678,0.76c0.139,0.174-0.131,1.097-0.444,1.384   c-0.311,0.287-1.191,0.503-1.547,0.415c-0.356-0.085-0.364-0.602-0.53-1.169C61.803,66.236,62.81,65.417,62.81,65.417z"/>
	<path style="fill-rule:evenodd;clip-rule:evenodd;fill:#7EA63E;" d="M63.01,67.606c0,0-1.258,1.022-1.052,1.734   c0.206,0.712,0.214,1.354,0.658,1.464c0.447,0.11,1.547-0.163,1.935-0.522c0.391-0.358,0.728-1.512,0.557-1.729   C64.935,68.34,63.01,67.606,63.01,67.606z M63.09,67.949c0,0,1.542,0.586,1.678,0.76c0.139,0.171-0.131,1.095-0.444,1.381   c-0.311,0.286-1.191,0.506-1.547,0.417s-0.364-0.602-0.527-1.172C62.084,68.768,63.09,67.949,63.09,67.949z"/>
	<path style="fill-rule:evenodd;clip-rule:evenodd;fill:#728F41;" d="M69.477,61.98c0,0-1.258,1.025-1.052,1.737   c0.206,0.709,0.214,1.354,0.661,1.464c0.444,0.109,1.544-0.163,1.935-0.522c0.388-0.359,0.725-1.512,0.554-1.729   C71.403,62.716,69.477,61.98,69.477,61.98z M69.557,62.326c0,0,1.542,0.586,1.679,0.757c0.139,0.174-0.131,1.098-0.444,1.384   c-0.311,0.287-1.191,0.506-1.547,0.417s-0.361-0.602-0.527-1.172C68.551,63.145,69.557,62.326,69.557,62.326z"/>
	<path style="fill-rule:evenodd;clip-rule:evenodd;fill:#7EA63E;" d="M72.852,63.388c0,0-1.258,1.025-1.052,1.734   c0.206,0.712,0.214,1.354,0.661,1.464c0.444,0.109,1.544-0.164,1.933-0.522c0.391-0.359,0.728-1.512,0.557-1.727   C74.776,64.122,72.852,63.388,72.852,63.388z M72.932,63.731c0,0,1.542,0.586,1.679,0.76c0.139,0.171-0.131,1.095-0.444,1.381   c-0.311,0.287-1.191,0.506-1.548,0.417c-0.355-0.088-0.363-0.602-0.526-1.169C71.926,64.55,72.932,63.731,72.932,63.731z"/>
	<path style="fill-rule:evenodd;clip-rule:evenodd;fill:#7EA63E;" d="M79.318,61.98c0,0-1.259,1.025-1.052,1.737   c0.206,0.709,0.217,1.354,0.66,1.464c0.445,0.109,1.545-0.163,1.936-0.522c0.389-0.359,0.726-1.512,0.555-1.729   C81.245,62.716,79.318,61.98,79.318,61.98z M79.401,62.326c0,0,1.538,0.586,1.678,0.757c0.137,0.174-0.134,1.098-0.444,1.384   c-0.313,0.287-1.191,0.506-1.55,0.417c-0.355-0.088-0.361-0.602-0.527-1.172C78.392,63.145,79.401,62.326,79.401,62.326z"/>
	<path style="fill-rule:evenodd;clip-rule:evenodd;fill:#7EA63E;" d="M64.978,60.856c0,0-1.258,1.025-1.052,1.737   c0.206,0.709,0.217,1.352,0.661,1.461c0.444,0.11,1.544-0.163,1.935-0.519c0.388-0.359,0.726-1.512,0.554-1.729   C66.904,61.592,64.978,60.856,64.978,60.856z M65.061,61.199c0,0,1.539,0.589,1.678,0.76c0.136,0.174-0.134,1.098-0.444,1.384   c-0.313,0.286-1.194,0.503-1.55,0.415c-0.356-0.086-0.361-0.6-0.527-1.17C64.051,62.021,65.061,61.199,65.061,61.199z"/>
	<path style="fill-rule:evenodd;clip-rule:evenodd;fill:#728F41;" d="M63.291,62.262c0,0-1.258,1.025-1.052,1.737   s0.214,1.354,0.661,1.464c0.444,0.109,1.544-0.164,1.933-0.522c0.391-0.358,0.728-1.512,0.557-1.729   C65.216,62.998,63.291,62.262,63.291,62.262z M63.372,62.607c0,0,1.542,0.586,1.678,0.76c0.139,0.171-0.131,1.094-0.444,1.381   c-0.311,0.286-1.191,0.506-1.547,0.417c-0.356-0.088-0.364-0.602-0.527-1.172C62.365,63.426,63.372,62.607,63.372,62.607z"/>
	<path style="fill-rule:evenodd;clip-rule:evenodd;fill:#728F41;" d="M69.672,59.202c0,0,0.779,1.94,0.95,2.128   c0.185,0.201-2.403,0.945-2.403,0.945l-0.613-2.347C67.605,59.928,67.959,59.101,69.672,59.202z"/>
	<path style="fill-rule:evenodd;clip-rule:evenodd;fill:#607836;" d="M70.622,61.33c0.351,0.069,0.498,1.917-0.575,1.644   c-0.902-0.23-1.55-0.327-1.828-0.699c-0.247-0.329,0.428-0.79,0.803-1.049C69.399,60.966,70.293,61.266,70.622,61.33z"/>
	<path style="fill-rule:evenodd;clip-rule:evenodd;fill:#728F41;" d="M63.714,63.126c0,0-1.988,0.3-2.213,0.426   c-0.241,0.134-0.313-2.65-0.313-2.65l2.412,0.062C63.599,60.963,64.247,61.528,63.714,63.126z"/>
	<path style="fill-rule:evenodd;clip-rule:evenodd;fill:#607836;" d="M61.501,63.552c-0.155,0.324-2.059,0.045-1.502-0.977   c0.471-0.862,0.736-1.499,1.188-1.673c0.394-0.155,0.669,0.656,0.824,1.1C62.165,62.441,61.648,63.244,61.501,63.552z"/>
	<path style="fill-rule:evenodd;clip-rule:evenodd;fill:#7EA63E;" d="M67.598,64.226c0,0-1.964,0.538-2.213,0.511   c-0.265-0.027,0.846,2.511,0.846,2.511l2.197-0.897C68.427,66.351,68.826,65.559,67.598,64.226z"/>
	<path style="fill-rule:evenodd;clip-rule:evenodd;fill:#607836;" d="M65.384,64.737c-0.273-0.238-1.713,0.736-0.843,1.432   c0.741,0.597,1.231,1.071,1.689,1.079c0.412,0.008,0.316-0.822,0.265-1.282S65.641,64.962,65.384,64.737z"/>
	<path style="fill-rule:evenodd;clip-rule:evenodd;fill:#728F41;" d="M60.529,65.369c0,0-0.284,1.98-0.41,2.205   c-0.131,0.241,2.674-0.088,2.674-0.088l0.045-2.294C62.839,65.192,62.261,64.598,60.529,65.369z"/>
	<path style="fill-rule:evenodd;clip-rule:evenodd;fill:#607836;" d="M60.12,67.574c-0.329,0.19,0,1.804,0.996,1.188   c0.851-0.527,1.488-0.849,1.678-1.276c0.171-0.38-0.637-0.522-1.086-0.603C61.26,66.801,60.433,67.397,60.12,67.574z"/>
	<path style="fill-rule:evenodd;clip-rule:evenodd;fill:#728F41;" d="M77.18,62.082c0,0,1.678,1.288,1.919,1.362   c0.254,0.081-1.488,1.997-1.488,1.997l-1.799-1.71C75.812,63.731,75.662,62.834,77.18,62.082z"/>
	<path style="fill-rule:evenodd;clip-rule:evenodd;fill:#607836;" d="M79.099,63.444c0.321-0.112,1.392,1.368,0.389,1.67   c-0.86,0.257-1.449,0.503-1.877,0.327c-0.385-0.155-0.064-0.889,0.11-1.298C77.896,63.736,78.796,63.552,79.099,63.444z"/>
	<path style="fill-rule:evenodd;clip-rule:evenodd;fill:#7EA63E;" d="M78.073,69.167c0,0,2.157,0.232,2.417,0.168   c0.278-0.067-0.377,2.479-0.377,2.479l-2.372-0.555C77.741,71.26,77.171,70.588,78.073,69.167z"/>
	<path style="fill-rule:evenodd;clip-rule:evenodd;fill:#607836;" d="M80.49,69.335c0.243-0.276,1.999,0.471,1.178,1.269   c-0.672,0.656-1.087,1.151-1.555,1.21c-0.413,0.053-0.485-0.712-0.53-1.146C79.538,70.227,80.263,69.592,80.49,69.335z"/>
	<path style="fill-rule:evenodd;clip-rule:evenodd;fill:#728F41;" d="M72.731,59.325c0,0,2.157,0.23,2.417,0.169   c0.278-0.067-0.378,2.479-0.378,2.479l-2.371-0.554C72.399,61.418,71.829,60.747,72.731,59.325z"/>
	<path style="fill-rule:evenodd;clip-rule:evenodd;fill:#607836;" d="M75.148,59.494c0.243-0.278,1.999,0.471,1.177,1.269   c-0.674,0.656-1.089,1.151-1.555,1.21c-0.412,0.053-0.486-0.712-0.529-1.146C74.195,60.385,74.921,59.751,75.148,59.494z"/>
	<path style="fill-rule:evenodd;clip-rule:evenodd;fill:#728F41;" d="M69.305,64.614c0,0,1.681,1.285,1.919,1.359   c0.257,0.081-1.488,2-1.488,2l-1.796-1.71C67.94,66.263,67.788,65.366,69.305,64.614z"/>
	<path style="fill-rule:evenodd;clip-rule:evenodd;fill:#607836;" d="M71.225,65.974c0.321-0.112,1.394,1.371,0.388,1.67   c-0.859,0.259-1.445,0.503-1.876,0.329c-0.386-0.158-0.064-0.889,0.109-1.298C70.022,66.266,70.922,66.081,71.225,65.974z"/>
	<path style="fill-rule:evenodd;clip-rule:evenodd;fill:#728F41;" d="M69.597,68.104c0,0-2.243,1.097-2.498,1.113   c-0.265,0.016,0.833,2.631,0.833,2.631l2.507-1.215C70.44,70.634,71.045,69.579,69.597,68.104z"/>
	<path style="fill-rule:evenodd;clip-rule:evenodd;fill:#607836;" d="M67.1,69.218c-0.272-0.222-1.576,1.057-0.784,1.673   c0.696,0.538,1.164,0.981,1.617,0.958c0.42-0.019,0.345-0.902,0.305-1.408C68.197,69.924,67.362,69.429,67.1,69.218z"/>
	<path style="fill-rule:evenodd;clip-rule:evenodd;fill:#7EA63E;" d="M72.009,69.574c0,0-1.258,1.025-1.052,1.737   c0.206,0.71,0.214,1.352,0.658,1.462c0.446,0.109,1.544-0.163,1.935-0.52c0.391-0.359,0.729-1.515,0.557-1.729   C73.933,70.307,72.009,69.574,72.009,69.574z M72.089,69.916c0,0,1.542,0.589,1.678,0.76c0.137,0.171-0.131,1.098-0.444,1.383   c-0.31,0.284-1.19,0.504-1.547,0.416c-0.355-0.089-0.364-0.604-0.529-1.17C71.083,70.735,72.089,69.916,72.089,69.916z"/>
	<path style="fill-rule:evenodd;clip-rule:evenodd;fill:#728F41;" d="M76.789,69.854c0,0-1.259,1.025-1.052,1.737   c0.205,0.709,0.214,1.352,0.658,1.461c0.447,0.11,1.544-0.163,1.936-0.519c0.391-0.358,0.728-1.513,0.557-1.729   C78.713,70.588,76.789,69.854,76.789,69.854z M76.869,70.197c0,0,1.541,0.589,1.679,0.76c0.139,0.174-0.132,1.097-0.445,1.383   c-0.311,0.287-1.19,0.503-1.547,0.415c-0.355-0.085-0.363-0.603-0.529-1.169C75.862,71.017,76.869,70.197,76.869,70.197z"/>
	<path style="fill-rule:evenodd;clip-rule:evenodd;fill:#728F41;" d="M81.853,65.492c0,0-2.117,0.607-2.365,0.578   c-0.268-0.032,0.564,2.449,0.564,2.449l2.178-0.795C82.229,67.724,82.8,66.948,81.853,65.492z"/>
	<path style="fill-rule:evenodd;clip-rule:evenodd;fill:#607836;" d="M79.487,66.07c-0.261-0.265-1.735,0.771-0.919,1.461   c0.661,0.557,1.068,0.977,1.483,0.988c0.369,0.011,0.383-0.736,0.396-1.175C80.458,66.884,79.725,66.313,79.487,66.07z"/>
	<path style="fill-rule:evenodd;clip-rule:evenodd;fill:#728F41;" d="M77.069,65.637c0,0-1.258,1.025-1.051,1.737   c0.205,0.709,0.213,1.352,0.658,1.461c0.446,0.11,1.547-0.163,1.935-0.519c0.391-0.359,0.728-1.512,0.557-1.729   C78.994,66.373,77.069,65.637,77.069,65.637z M77.149,65.979c0,0,1.543,0.588,1.679,0.76c0.14,0.174-0.131,1.098-0.444,1.384   c-0.311,0.286-1.191,0.503-1.547,0.415c-0.356-0.086-0.364-0.6-0.527-1.17C76.144,66.801,77.149,65.979,77.149,65.979z"/>
</g>
</svg>