<?xml version="1.0" encoding="utf-8"?>
<!-- Uploaded to: SVG Repo, www.svgrepo.com, Generator: SVG Repo Mixer Tools -->
<!DOCTYPE svg PUBLIC "-//W3C//DTD SVG 1.1//EN" "http://www.w3.org/Graphics/SVG/1.1/DTD/svg11.dtd">
<svg xmlns="http://www.w3.org/2000/svg" xmlns:xlink="http://www.w3.org/1999/xlink" version="1.1" id="Layer_1"  width="512" height="512" viewBox="0 0 512 512" enable-background="new 0 0 512 512" xml:space="preserve">
<g id="porridge">
	<path fill="#E5E8EC" d="M458.668,0.005c-6.125,0-12.077,1.734-17.218,5.031c-4.969,3.172-8.953,7.641-11.547,12.937   l-93.482,192.012l-9.344,19.187l19.187,9.328l19.172,9.344l19.187,9.344L393.966,238l93.451-191.996   c2.125-4.344,3.25-9.188,3.25-14C490.667,14.348,476.308,0.005,458.668,0.005z"/>
	<path fill="#FFD2A6" d="M85.332,277.328c-10.781,0-21.047-3.141-28.89-8.859c-8.75-6.359-13.766-15.5-13.766-25.078   s5.016-18.718,13.766-25.078c7.843-5.718,18.109-8.859,28.89-8.859c0.062,0,0.109,0,0.156,0c0.906-8.5,5.765-16.453,13.609-22.172   c7.859-5.703,18.125-8.859,28.906-8.859c0.047,0,0.109,0,0.156,0c0.906-8.5,5.75-16.453,13.609-22.156   c7.859-5.719,18.125-8.859,28.906-8.859c0.047,0,0.094,0,0.156,0c0.906-8.5,5.75-16.453,13.609-22.171   c7.843-5.703,18.109-8.859,28.89-8.859c0.062,0,0.109,0,0.156,0c0.906-8.5,5.765-16.453,13.609-22.171   c7.859-5.703,18.125-8.844,28.906-8.844s21.046,3.141,28.905,8.844c7.859,5.719,12.703,13.672,13.609,22.171   c0.047,0,0.094,0,0.156,0c10.781,0,21.047,3.156,28.891,8.859c7.859,5.718,12.703,13.671,13.609,22.171c0.062,0,0.109,0,0.156,0   c10.796,0,21.046,3.141,28.905,8.859c7.858,5.703,12.702,13.656,13.608,22.156c0.047,0,0.109,0,0.156,0   c10.781,0,21.047,3.156,28.906,8.859c7.859,5.719,12.703,13.672,13.609,22.172c0.047,0,0.094,0,0.156,0   c10.781,0,21.047,3.141,28.89,8.859c8.75,6.359,13.766,15.5,13.766,25.078s-5.016,18.719-13.766,25.078   c-7.843,5.719-18.108,8.859-28.89,8.859H85.332z"/>
	<path fill="#F4BE8E" d="M461.84,209.688c-7.562-5.5-16.858-9.062-26.78-10.359c-2.859-7.969-8.312-15.156-15.891-20.671   c-7.562-5.5-16.859-9.062-26.781-10.359c-2.859-7.968-8.312-15.156-15.891-20.671c-7.546-5.484-16.843-9.062-26.78-10.344   c-2.844-7.984-8.296-15.171-15.874-20.671c-7.562-5.5-16.859-9.062-26.781-10.359c-2.859-7.969-8.312-15.156-15.891-20.672   c-9.656-7.016-22.156-10.89-35.171-10.89c-13.015,0-25.515,3.875-35.171,10.89c-7.578,5.516-13.031,12.703-15.89,20.672   c-9.922,1.297-19.218,4.859-26.781,10.359c-7.578,5.5-13.031,12.687-15.875,20.671c-9.938,1.281-19.234,4.859-26.781,10.344   c-7.578,5.516-13.031,12.703-15.891,20.671c-9.921,1.297-19.218,4.859-26.781,10.359c-7.578,5.515-13.031,12.703-15.89,20.671   c-9.922,1.297-19.218,4.859-26.781,10.359c-11.531,8.39-18.156,20.671-18.156,33.702c0,13.031,6.625,25.312,18.156,33.703   c9.672,7.03,22.156,10.905,35.171,10.905h341.337c13.016,0,25.499-3.875,35.171-10.905c11.531-8.391,18.155-20.672,18.155-33.703   C479.995,230.36,473.371,218.079,461.84,209.688z M426.669,266.656c-17.672,0-323.666,0-341.337,0c-17.672,0-32-10.422-32-23.266   c0-10.672,9.906-19.671,23.375-22.406c4.062,2.953,10.438,5.75,18.375,5.75c4.734,0,10.031-1,15.719-3.578   c0.016,0,0.047-0.016,0.062-0.031c0.094-0.031,0.188-0.078,0.281-0.109V223c3.656-1.688,6.187-5.375,6.187-9.671   c0-5.891-4.765-10.672-10.656-10.672c-1.609,0-3.109,0.359-4.484,1v-0.016c-1.703,0.797-3.234,1.266-4.609,1.516   c4.172-9.312,16.203-16.062,30.421-16.062c4.938,0,9.609,0.812,13.781,2.266c-2-3.031-3.109-6.438-3.109-10.016   c0-11.781,12.046-21.515,27.671-23.062c7.578,7.984,24.609,23.187,44.171,23.187c1.266,0,2.547-0.062,3.844-0.188   c0.031-0.016,0.062-0.016,0.094-0.016h0.016l0,0c5.359-0.578,9.531-5.109,9.531-10.609c0-5.89-4.781-10.656-10.671-10.656   c-0.375,0-0.766,0.016-1.141,0.062v-0.016c-10.5,1.156-23.031-9.047-29.734-15.828c3.688-9.891,16.109-17.171,30.875-17.171   c4.937,0,9.609,0.812,13.781,2.265c-1.984-3.031-3.109-6.437-3.109-10.031c0-12.843,14.328-23.265,32-23.265   c16.312,0,29.765,8.875,31.733,20.343c-4.828,1.062-11.422,1.688-20.233,1v0.016c-0.281-0.031-0.547-0.047-0.828-0.047   c-5.891,0-10.672,4.766-10.672,10.672c0,5.609,4.344,10.187,9.844,10.625l0,0c3.155,0.25,6.14,0.359,8.937,0.359   c19.891,0,31.016-5.703,36.609-10.031c11.344,3.578,19.281,11.797,19.281,21.359c0,3.594-1.125,6.984-3.125,10.016   c4.188-1.438,8.859-2.266,13.781-2.266c16.358,0,29.843,8.937,31.764,20.453c-6.562,2.625-10.53,2.812-10.593,2.812   c0.125,0,0.188,0,0.188,0l0,0h-0.016c-5.891,0-10.672,4.766-10.672,10.672c0,5.875,4.766,10.641,10.641,10.656l0,0h0.031l0,0l0,0   l0,0c1.578,0,14.749-0.375,33.077-11.938c11.859,3.406,20.25,11.812,20.25,21.641c0,3.594-1.125,6.984-3.109,10.031   c4.172-1.453,8.844-2.266,13.781-2.266c17.672,0,31.999,10.421,31.999,23.265S444.341,266.656,426.669,266.656z"/>
	<path fill="#46CEAD" d="M0.005,234.656v42.672c0,94.842,51.577,177.637,128.216,221.854c-0.141,0.703-0.219,1.406-0.219,2.141   c0,5.891,4.781,10.672,10.672,10.672h14.859h204.934h14.858c5.891,0,10.672-4.781,10.672-10.672c0-0.734-0.078-1.438-0.219-2.141   c76.64-44.233,128.217-127.013,128.217-221.854v-42.672H0.005z"/>
	<path fill="#35BB9B" d="M0.005,256v21.328h32c0,5.89,4.781,10.671,10.671,10.671c5.891,0,10.656-4.781,10.656-10.671h21.343   c0,5.89,4.766,10.671,10.656,10.671c5.89,0,10.671-4.781,10.671-10.671h21.328c0,5.89,4.781,10.671,10.672,10.671   s10.672-4.781,10.672-10.671h21.328c0,5.89,4.781,10.671,10.671,10.671c5.891,0,10.656-4.781,10.656-10.671h21.343   c0,5.89,4.766,10.671,10.656,10.671c5.89,0,10.671-4.781,10.671-10.671h21.328c0,5.89,4.781,10.671,10.672,10.671   s10.672-4.781,10.672-10.671h21.327c0,5.89,4.781,10.671,10.672,10.671s10.656-4.781,10.656-10.671h21.344   c0,5.89,4.766,10.671,10.656,10.671c5.89,0,10.671-4.781,10.671-10.671h21.327c0,5.89,4.781,10.671,10.672,10.671   s10.672-4.781,10.672-10.671h21.328c0,5.89,4.781,10.671,10.672,10.671s10.656-4.781,10.656-10.671h21.343   c0,5.89,4.766,10.671,10.656,10.671c5.89,0,10.671-4.781,10.671-10.671h32V256H0.005z"/>
	<path opacity="0.2" fill="#FFFFFF" d="M490.667,234.656v42.672c0,94.842-51.576,177.621-128.216,221.854   c0.141,0.703,0.219,1.406,0.219,2.141c0,5.891-4.781,10.672-10.672,10.672h6.469h14.858c5.891,0,10.672-4.781,10.672-10.672   c0-0.734-0.078-1.438-0.219-2.141c76.64-44.233,128.217-127.013,128.217-221.854v-42.672H490.667z"/>
</g>
</svg>