<?xml version="1.0" encoding="UTF-8"?>
<!DOCTYPE svg PUBLIC "-//W3C//DTD SVG 1.1//EN" "http://www.w3.org/Graphics/SVG/1.1/DTD/svg11.dtd">
<svg version="1.1" xmlns="http://www.w3.org/2000/svg" xmlns:xlink="http://www.w3.org/1999/xlink" x="0" y="0" width="1236" height="860" viewBox="0, 0, 1236, 860">
  <defs>
    <clipPath id="Clip_1">
      <path d="M0.24,3.128 L1235.236,3.128 L1235.236,859.76 L0.24,859.76 z"/>
    </clipPath>
    <clipPath id="Clip_2">
      <path d="M0.24,3.128 L1235.236,3.128 L1235.236,859.76 L0.24,859.76 z"/>
    </clipPath>
    <clipPath id="Clip_3">
      <path d="M0.24,3.128 L1235.236,3.128 L1235.236,859.76 L0.24,859.76 z"/>
    </clipPath>
    <clipPath id="Clip_4">
      <path d="M0.24,3.128 L1235.236,3.128 L1235.236,859.76 L0.24,859.76 z"/>
    </clipPath>
  </defs>
  <g id="Layer_1">
    <g>
      <path d="M647.184,46.96 C746.156,30.728 845.552,68.804 884.744,166.788 C901.684,209.072 914.7,265.26 897.96,309.528 C881.568,352.892 855.124,388.568 823.452,421.9 C818.744,426.844 823.304,436.316 830.336,432.688 C836.272,429.612 841.916,426.228 847.284,422.552 C845.148,426.616 842.904,430.588 840.284,434.24 C826.752,452.924 807.668,455.772 785.708,453.912 C777.356,453.204 773.156,460.116 773.776,466.532 C773.5,466.696 773.264,466.876 772.976,467.068 C767.52,470.56 760.988,472.672 754.736,474.016 C747.28,475.616 739.632,476.724 732,475.82 C725.156,475 719.828,473.492 713.332,476.352 C711.504,477.164 709.94,478.976 709.16,481.044 C701.516,483.132 694.196,486.476 686.04,487.076 C679.348,487.584 672.376,486.92 666.884,482.584 C661.096,478.024 658.568,473.1 650.732,473.044 C648.848,473.016 646.74,473.68 645.28,475.024 C631.74,469.544 614.792,468.008 603.272,466.444 C600.716,466.1 597.996,465.78 595.192,465.42 C595.672,465.42 596.128,465.492 596.628,465.508 C610.6,465.828 616.772,445.392 602.304,440.604 C516.3,411.972 453.888,332.236 467.82,236.752 C481.7,141.556 550.3,62.828 647.184,46.96" fill="#FBD58D"/>
      <path d="M467.82,236.752 C481.7,141.556 550.3,62.828 647.184,46.96 C746.156,30.728 845.552,68.804 884.744,166.788 C901.684,209.072 914.7,265.26 897.96,309.528 C881.568,352.892 855.124,388.568 823.452,421.9 C818.744,426.844 823.304,436.316 830.336,432.688 C836.272,429.612 841.916,426.228 847.284,422.552 C845.148,426.616 842.904,430.588 840.284,434.24 C826.752,452.924 807.668,455.772 785.708,453.912 C777.356,453.204 773.156,460.116 773.776,466.532 C773.5,466.696 773.264,466.876 772.976,467.068 C767.52,470.56 760.988,472.672 754.736,474.016 C747.28,475.616 739.632,476.724 732,475.82 C725.156,475 719.828,473.492 713.332,476.352 C711.504,477.164 709.94,478.976 709.16,481.044 C701.516,483.132 694.196,486.476 686.04,487.076 C679.348,487.584 672.376,486.92 666.884,482.584 C661.096,478.024 658.568,473.1 650.732,473.044 C648.848,473.016 646.74,473.68 645.28,475.024 C631.74,469.544 614.792,468.008 603.272,466.444 C600.716,466.1 597.996,465.78 595.192,465.42 C595.672,465.42 596.128,465.492 596.628,465.508 C610.6,465.828 616.772,445.392 602.304,440.604 C516.3,411.972 453.888,332.236 467.82,236.752 z M438.128,244.604 C435.76,316.612 471.832,413.936 540.584,450.66 C540.712,453.252 540.98,455.436 541.216,456.552 C543.872,469.436 555.208,479.888 567.124,484.38 C582.096,489.984 597.98,491.444 613.608,494.264 C627.952,496.876 642.896,507.032 657.192,506.592 C659.824,506.492 662.408,505.508 664.196,503.788 C670.888,506.14 677.952,507.248 683.54,506.936 C695.152,506.272 707.912,501.928 716.664,493.82 C730.58,501.96 754.512,497.18 767.64,491.788 C774.692,488.888 783.952,484.74 787.952,477.732 C788.124,477.452 788.216,477.212 788.356,476.952 C812.168,478.828 836.828,473.688 852.796,454.524 C859.208,446.808 864.168,438.076 867.56,428.64 C869.12,424.34 870.208,420.06 871.168,415.592 C871.86,412.46 869.108,410.856 869.008,408.228 C868.972,407.284 868.608,406.456 868.116,405.756 C933.184,344.172 944.016,235.636 908.624,155.576 C862.308,50.792 755.124,-4.396 642.128,19.028 C534.668,41.312 441.94,129.596 438.128,244.604" fill="#392F1F"/>
      <path d="M475.848,202.66 C459.456,279.324 563.068,420.528 612.812,295.604 C623.852,330.86 644.9,389.424 690.104,353.408 C716.364,331.072 703.296,271.836 712.904,242.876 C738.216,256.808 748.32,328.356 776.624,329.984 C817.576,338.58 811.116,262.692 817.416,242.04 C838.74,256.336 843.144,308.232 870.768,301.872 C902.032,291.172 895.264,211.308 889.564,191.68 C882.512,156.088 862.82,113.496 833.524,99.9 C833.524,99.9 770.624,2.228 645.944,36.152 C521.26,70.08 498.596,96.152 475.848,202.66" fill="#452014"/>
      <path d="M483.144,201.336 C486.652,254.956 552.352,395.344 598.392,290.208 C603.132,279.368 622.268,275.304 626.74,289.056 C630.428,300.304 634.412,311.304 639.14,322.176 C650.688,348.744 682.548,352.744 689.968,319.86 C696.088,292.752 691.42,264.548 698.22,237.364 C700.712,227.448 714.524,224.596 722.004,230.088 C744.976,246.964 753.296,276.292 765.992,300.6 C782.596,332.508 795.668,289.216 797.432,274.528 C798.952,261.68 799.744,249.112 802.624,236.496 C804.804,227.016 819.516,222.98 826.584,229.196 C832.6,234.44 837.768,239.312 841.936,246.256 C843.872,249.544 864.636,295.94 873.568,275.452 C883.656,252.244 879.748,218.376 873.912,194.516 C862.48,147.544 827.468,107.6 789.668,77.148 C728.684,27.984 652.404,46.136 585.748,72.452 C524.268,96.724 506.72,143.548 493.38,204.228 C488.544,226.108 453.444,223.22 458.312,201.072 C475.676,122.148 503.292,69.06 581.452,39.448 C663.684,8.296 752.992,-1.748 821.772,62.748 C841.116,80.904 864,100.468 878.872,121.86 C901.968,155.044 909.212,197.732 910.216,237.308 C910.76,258.82 905.836,315.824 873.584,317.468 C830.532,319.68 834.168,277.648 808.256,254.908 C816.232,252.492 824.24,250.036 832.216,247.612 C824.232,282.304 832.484,336.416 786.996,346.12 C736.064,356.964 732.224,276.54 703.804,255.644 C711.74,253.228 719.676,250.804 727.608,248.384 C717.516,288.516 735.356,368.932 674.968,378.78 C626.92,386.604 609.368,335.516 597.66,298.352 C607.516,299.244 617.372,300.136 627.212,301.008 C605.376,349.72 565.124,379.028 517.016,342.352 C478.816,313.224 450.4,246.248 468.892,200.064 C471.412,193.772 482.624,193.588 483.144,201.336" fill="#452014"/>
    </g>
    <path d="M793.46,17.18 C830.028,54.704 784.376,136.08 733.828,125.18 C724.296,123.112 717.5,110.6 727.028,103.412 C741.548,92.48 757.848,87.932 768.264,72.104 C778.34,56.836 774.192,39.992 774.636,23.06 C774.92,12.992 787.5,11.048 793.46,17.18" fill="#84522D"/>
    <g clip-path="url(#Clip_1)">
      <path d="M670.728,117.896 C658.8,128.516 648.972,132.328 632.4,130.68 C617.048,129.144 602.572,121.984 590.556,112.612 C571.012,97.42 545.316,54.452 571.816,33.964 C577.604,29.508 586.868,30.804 589.94,37.98 C593.276,45.768 592.792,54.208 594.1,62.48 C595.54,71.78 602.064,80.704 608.864,86.932 C622.584,99.468 645.212,106.564 663.748,102.952 C672.364,101.268 676.948,112.352 670.728,117.896" fill="#84522D"/>
      <path d="M678.74,3.164 C700.912,2.216 711.992,19.8 717.844,38.956 C724.116,59.516 726.452,98.9 708.28,113.952 C700.676,120.284 685.896,116.612 685.068,105.564 C683.844,89.304 692.072,74.22 690.896,57.296 C690.168,46.86 686.6,23.368 675.104,18.972 C665.832,15.424 670.012,3.548 678.74,3.164" fill="#84522D"/>
    </g>
    <path d="M570.316,100.044 C580.356,123.576 570.1,151.856 554.2,170.176 C539.328,187.312 506.668,206.128 484.964,190.8 C479.34,186.828 478.504,177.484 484.312,173.156 C498.872,162.284 518.052,163.816 531.356,149.32 C544.068,135.492 545.52,117.988 550.54,100.852 C553.156,91.9 566.804,91.82 570.316,100.044" fill="#84522D"/>
    <path d="M608.5,78.244 C630.796,107.616 591.4,135.308 565.672,139.62 C530.936,145.44 488.172,126.604 490.212,86.908 C490.648,78.696 502.74,74.26 507.692,81.448 C519.384,98.38 535.164,111.244 556.744,110.084 C578.284,108.916 586.616,99.136 594.34,80.68 C596.612,75.164 604.564,73.06 608.5,78.244" fill="#84522D"/>
    <path d="M673.796,112.464 C686.152,118.952 694.852,125.6 696,140.8 C697.332,158.604 689.64,174.632 680.496,189.384 C665.312,213.868 626.432,252.008 594.372,238.068 C586.472,234.636 583.488,223.548 590.932,217.736 C598.712,211.66 607.652,207.492 615.752,201.88 C626.936,194.1 636.836,185.8 645.656,175.396 C652.708,167.072 657.988,157.988 661.476,147.68 C662.56,144.496 663.076,140.976 662.788,137.596 C662.24,131.228 662.716,131.844 661.312,130.064 C654.88,122.048 663.292,107 673.796,112.464" fill="#84522D"/>
    <path d="M511.06,58 C508.24,78.18 499.956,97.112 502.024,117.86 C504.832,146.056 530.328,144.12 547.612,159.136 C554.4,165.088 554.768,176.292 545.676,180.492 C516.632,193.956 482.156,168.94 472.204,141.556 C461.796,112.904 469.936,72.78 490.484,50.368 C497.376,42.836 512.748,45.588 511.06,58" fill="#84522D"/>
    <g clip-path="url(#Clip_2)">
      <path d="M854.052,107.06 C833.088,109.26 815.168,111.64 806.7,133.984 C802.248,145.736 810.384,160.82 800.132,170.028 C788.468,180.524 777.14,168.708 773.828,157.36 C767.012,134.08 781.096,106.244 799.624,92.712 C816.812,80.18 844.444,74.656 859.108,93.108 C862.88,97.828 860.736,106.348 854.052,107.06" fill="#84522D"/>
      <path d="M0.96,65.004 C45.872,134.932 87.456,205.208 126.1,278.852 C167.296,357.316 207.952,438.644 261.904,509.308 C271.568,521.948 291.14,508.688 282.328,495.196 C236.216,424.628 194.088,352.804 154.248,278.48 C113.244,202.032 85.752,131.136 32.748,46.188 C26.204,35.712 -5.916,54.316 0.96,65.004" fill="#392F1F"/>
    </g>
    <path d="M366.392,244.448 C266.436,252.676 179.224,313.7 164.936,418.26 C158.74,463.384 159.728,521.056 186.696,559.952 C213.1,598.052 247.404,626.256 286.204,650.92 C291.972,654.58 289.84,664.88 282.14,663.06 C275.632,661.516 269.34,659.592 263.24,657.328 C266.3,660.756 269.436,664.068 272.864,666.972 C290.52,681.82 309.724,679.96 330.576,672.836 C338.512,670.124 344.26,675.82 345.212,682.188 C345.52,682.284 345.792,682.4 346.12,682.516 C352.256,684.588 359.112,685.052 365.5,684.84 C373.128,684.588 380.812,683.812 387.996,681.084 C394.44,678.624 399.244,675.876 406.232,677.076 C408.208,677.424 410.164,678.8 411.42,680.616 C419.34,680.796 427.252,682.264 435.312,680.876 C441.932,679.748 448.532,677.404 452.812,671.872 C457.324,666.044 458.58,660.66 466.168,658.704 C467.988,658.216 470.196,658.36 471.94,659.304 C483.748,650.712 499.82,645.112 510.616,640.796 C513.016,639.852 515.576,638.88 518.208,637.852 C517.744,637.968 517.32,638.144 516.832,638.28 C503.356,641.976 492.42,623.644 505.296,615.492 C581.804,566.88 623.04,474.4 586.392,385.136 C549.86,296.136 464.232,236.376 366.392,244.448" fill="#FBD58D"/>
    <path d="M505.296,615.492 C492.42,623.644 503.356,641.976 516.832,638.28 C517.32,638.144 517.744,637.968 518.208,637.852 C515.576,638.88 513.016,639.852 510.616,640.796 C499.82,645.112 483.748,650.712 471.94,659.304 C470.196,658.36 467.988,658.216 466.168,658.704 C458.58,660.66 457.324,666.044 452.812,671.872 C448.532,677.404 441.932,679.748 435.312,680.876 C427.252,682.264 419.34,680.796 411.42,680.616 C410.164,678.8 408.208,677.424 406.232,677.076 C399.244,675.876 394.44,678.624 387.996,681.084 C380.812,683.812 373.128,684.588 365.5,684.84 C359.112,685.052 352.256,684.588 346.12,682.516 C345.792,682.4 345.52,682.284 345.212,682.188 C344.26,675.82 338.512,670.124 330.576,672.836 C309.724,679.96 290.52,681.82 272.864,666.972 C269.436,664.068 266.3,660.756 263.24,657.328 C269.34,659.592 275.632,661.516 282.14,663.06 C289.84,664.88 291.972,654.58 286.204,650.92 C247.404,626.256 213.1,598.052 186.696,559.952 C159.728,521.056 158.74,463.384 164.936,418.26 C179.224,313.7 266.436,252.676 366.392,244.448 C464.232,236.376 549.86,296.136 586.392,385.136 C623.04,474.4 581.804,566.88 505.296,615.492 z M364.532,216.128 C249.228,220.772 158.604,300.284 139.052,413.168 C124.104,499.412 160.908,602.096 238.964,646.084 C238.656,646.876 238.5,647.764 238.692,648.696 C239.236,651.272 236.952,653.5 238.384,656.364 C240.4,660.468 242.488,664.36 245.044,668.152 C250.62,676.476 257.548,683.756 265.644,689.68 C285.776,704.412 310.944,703.428 333.592,695.836 C333.788,696.048 333.944,696.264 334.176,696.492 C339.752,702.32 349.74,704.1 357.292,705.208 C371.328,707.256 395.7,706.1 407.236,694.828 C417.692,700.576 431.128,701.704 442.552,699.536 C448.048,698.492 454.632,695.704 460.556,691.788 C462.704,693.032 465.456,693.36 468.028,692.816 C482.004,689.776 494.048,676.304 507.328,670.304 C521.808,663.776 536.868,658.512 550.036,649.452 C560.508,642.212 568.968,629.32 568.424,616.172 C568.388,615.032 568.116,612.844 567.612,610.304 C625.42,558.016 636.844,454.848 617.096,385.56 C585.54,274.9 474.184,211.712 364.532,216.128" fill="#392F1F"/>
    <path d="M570.344,354.004 C604.824,424.416 538.5,586.516 459.976,477.364 C457.808,514.24 451.572,576.156 398.992,552.172 C368.092,536.86 366.428,476.22 350.088,450.456 C328.908,470.1 336.44,541.968 309.376,550.404 C271.724,568.664 259.604,493.468 248.492,474.96 C231.26,493.996 239.564,545.412 211.224,545.936 C178.292,543.128 165.516,464.008 166.288,443.58 C164.508,407.34 173.296,361.244 198.424,340.956 C198.424,340.956 235.792,230.956 364.976,233.664 C494.164,236.376 522.468,256.18 570.344,354.004" fill="#452014"/>
    <path d="M562.948,354.488 C572.528,407.36 542.796,559.488 472.656,468.632 C465.432,459.264 445.88,459.96 444.876,474.38 C444.02,486.196 442.824,497.828 440.864,509.524 C436.1,538.092 406.156,549.696 390.992,519.584 C378.488,494.764 376.184,466.272 363,441.548 C358.18,432.528 344.088,433.108 338.164,440.252 C319.964,462.188 318.996,492.656 312.572,519.316 C304.188,554.296 281.012,515.464 275.748,501.64 C271.16,489.54 267.348,477.54 261.5,466 C257.084,457.328 241.832,456.976 236.488,464.72 C231.916,471.264 228.084,477.248 225.724,484.992 C224.64,488.648 215.736,538.696 202.104,520.984 C186.696,500.904 182.28,467.1 182.164,442.536 C181.876,394.196 206.168,346.96 235.46,308.26 C282.72,245.784 361.124,244.912 432.172,254.304 C497.704,262.956 526.068,304.136 553.712,359.772 C563.7,379.828 597.06,368.524 586.972,348.216 C551,275.852 511.352,231.032 428.34,221.236 C341.012,210.936 251.936,222.824 200.824,302.064 C186.46,324.364 169,348.892 159.748,373.248 C145.38,411.04 148.692,454.212 157.308,492.852 C161.992,513.856 180.576,567.968 212.268,561.748 C254.572,553.468 240.86,513.564 260.492,485.224 C252.168,484.82 243.804,484.376 235.48,483.944 C251.628,515.68 256.736,570.172 303.22,568.568 C355.256,566.748 339.496,487.796 362.012,460.636 C353.728,460.212 345.44,459.788 337.156,459.36 C356.672,495.852 358.84,578.188 419.824,573.116 C468.336,569.068 472.984,515.248 475.344,476.36 C465.996,479.608 456.644,482.86 447.312,486.092 C480.3,528.064 526.456,546.748 564.244,499.512 C594.252,461.992 605.596,390.132 576.46,349.804 C572.492,344.304 561.572,346.84 562.948,354.488" fill="#452014"/>
    <path d="M238.268,220.464 C211.88,265.724 275.884,333.62 322.288,310.796 C331.04,306.476 334.6,292.692 323.608,288.028 C306.876,280.94 289.96,280.476 276.02,267.64 C262.548,255.272 262.488,237.924 257.956,221.604 C255.244,211.904 242.568,213.068 238.268,220.464" fill="#84522D"/>
    <path d="M374.968,319.504 C389.12,326.92 399.572,328.236 415.252,322.624 C429.776,317.416 442.084,306.964 451.472,294.96 C466.752,275.48 481.272,227.568 450.6,214.112 C443.904,211.188 435.232,214.692 433.996,222.4 C432.64,230.76 435.156,238.836 435.892,247.18 C436.744,256.548 432.58,266.792 427.488,274.476 C417.208,289.964 396.98,302.332 378.12,303.32 C369.352,303.768 367.588,315.636 374.968,319.504" fill="#84522D"/>
    <path d="M298.284,240.268 C276.54,244.72 270.056,264.468 269.008,284.464 C267.908,305.936 275.188,344.712 296.464,354.912 C305.368,359.212 318.824,352.068 316.948,341.148 C314.196,325.08 302.56,312.44 299.6,295.732 C297.78,285.432 295.552,261.776 305.64,254.728 C313.772,249.036 306.84,238.524 298.284,240.268" fill="#84522D"/>
    <path d="M179.28,308.78 C175.236,334.044 192.036,359 211.9,372.92 C230.484,385.948 266.728,396.288 284.072,376.152 C288.564,370.944 287.112,361.672 280.432,358.884 C263.668,351.856 245.432,357.992 229.012,347.152 C213.332,336.812 207.68,320.184 198.66,304.772 C193.956,296.72 180.692,299.952 179.28,308.78" fill="#84522D"/>
    <path d="M347.608,356.928 C333.092,390.828 378.024,408.152 404.024,406.1 C439.144,403.332 476.064,374.7 464.468,336.676 C462.064,328.816 449.248,327.444 446.188,335.612 C438.948,354.876 426.752,371.176 405.536,375.28 C384.356,379.368 373.9,371.892 361.936,355.864 C358.396,351.06 350.168,350.948 347.608,356.928" fill="#84522D"/>
    <path d="M361.16,205.596 C350.748,214.888 343.912,223.444 346.488,238.468 C349.508,256.064 360.852,269.752 373.3,281.852 C393.96,301.928 440.924,329.516 468.648,308.22 C475.484,302.972 475.692,291.492 467.06,287.66 C458.036,283.652 448.36,281.776 439.144,278.288 C426.404,273.452 414.788,267.796 403.716,259.84 C394.848,253.468 387.532,245.94 381.648,236.784 C379.824,233.956 378.472,230.664 377.928,227.316 C376.92,221.004 376.612,221.72 377.54,219.648 C381.84,210.316 370.032,197.752 361.16,205.596" fill="#84522D"/>
    <path d="M501.132,222.184 C508.756,241.08 521.384,257.44 524.404,278.076 C528.504,306.108 503.304,310.408 490.172,329.164 C485.028,336.58 487.388,347.54 497.224,349.416 C528.664,355.436 556.056,322.816 559.076,293.836 C562.232,263.52 544.612,226.56 519.252,209.796 C510.736,204.16 496.488,210.552 501.132,222.184" fill="#84522D"/>
    <path d="M253.252,430.612 C274.124,427.668 292.084,425.636 305.716,445.264 C312.88,455.584 308.64,472.196 320.82,478.64 C334.676,486 342.808,471.788 343.272,459.976 C344.244,435.74 323.836,412.14 302.58,403.508 C282.872,395.512 254.724,396.848 244.968,418.296 C242.448,423.796 246.592,431.54 253.252,430.612" fill="#84522D"/>
    <g clip-path="url(#Clip_3)">
      <path d="M1004.624,154.564 C1104.58,162.796 1191.796,223.812 1206.08,328.376 C1212.276,373.5 1211.288,431.172 1184.32,470.068 C1157.912,508.172 1123.612,536.376 1084.812,561.04 C1079.044,564.696 1081.172,575 1088.876,573.18 C1095.38,571.632 1101.676,569.712 1107.772,567.444 C1104.716,570.876 1101.58,574.188 1098.152,577.084 C1080.5,591.936 1061.292,590.076 1040.44,582.952 C1032.504,580.24 1026.756,585.936 1025.804,592.304 C1025.496,592.396 1025.224,592.516 1024.896,592.632 C1018.76,594.704 1011.904,595.172 1005.512,594.952 C997.888,594.704 990.2,593.928 983.02,591.204 C976.576,588.74 971.772,585.992 964.784,587.196 C962.812,587.54 960.852,588.912 959.596,590.732 C951.676,590.912 943.764,592.38 935.704,590.992 C929.084,589.868 922.484,587.524 918.204,581.984 C913.692,576.156 912.436,570.772 904.844,568.82 C903.028,568.336 900.82,568.476 899.076,569.42 C887.268,560.828 871.196,555.224 860.396,550.912 C858,549.968 855.44,549 852.812,547.968 C853.272,548.084 853.696,548.256 854.18,548.396 C867.66,552.092 878.592,533.756 865.72,525.608 C789.208,477 747.976,384.516 784.624,295.252 C821.156,206.256 906.784,146.492 1004.624,154.564" fill="#FBD58D"/>
      <path d="M784.624,295.252 C821.156,206.256 906.784,146.492 1004.624,154.564 C1104.58,162.796 1191.796,223.812 1206.08,328.376 C1212.276,373.5 1211.288,431.172 1184.32,470.068 C1157.912,508.172 1123.612,536.376 1084.812,561.04 C1079.044,564.696 1081.172,575 1088.876,573.18 C1095.38,571.632 1101.676,569.712 1107.772,567.444 C1104.716,570.876 1101.58,574.188 1098.152,577.084 C1080.5,591.936 1061.292,590.076 1040.44,582.952 C1032.504,580.24 1026.756,585.936 1025.804,592.304 C1025.496,592.396 1025.224,592.516 1024.896,592.632 C1018.76,594.704 1011.904,595.172 1005.512,594.952 C997.888,594.704 990.2,593.928 983.02,591.204 C976.576,588.74 971.772,585.992 964.784,587.196 C962.812,587.54 960.852,588.912 959.596,590.732 C951.676,590.912 943.764,592.38 935.704,590.992 C929.084,589.868 922.484,587.524 918.204,581.984 C913.692,576.156 912.436,570.772 904.844,568.82 C903.028,568.336 900.82,568.476 899.076,569.42 C887.268,560.828 871.196,555.224 860.396,550.912 C858,549.968 855.44,549 852.812,547.968 C853.272,548.084 853.696,548.256 854.18,548.396 C867.66,552.092 878.592,533.756 865.72,525.608 C789.208,477 747.976,384.516 784.624,295.252 z M753.92,295.68 C734.168,364.968 745.596,468.132 803.404,520.42 C802.9,522.96 802.628,525.148 802.592,526.288 C802.044,539.436 810.504,552.328 820.984,559.568 C834.148,568.624 849.208,573.888 863.684,580.42 C876.968,586.42 889.008,599.888 902.992,602.928 C905.56,603.476 908.312,603.148 910.46,601.904 C916.384,605.82 922.968,608.608 928.468,609.648 C939.888,611.82 953.324,610.696 963.78,604.944 C975.316,616.216 999.684,617.376 1013.724,615.32 C1021.276,614.216 1031.264,612.436 1036.84,606.608 C1037.072,606.38 1037.224,606.164 1037.42,605.952 C1060.068,613.544 1085.24,614.532 1105.372,599.796 C1113.468,593.876 1120.396,586.592 1125.972,578.264 C1128.528,574.476 1130.616,570.584 1132.632,566.476 C1134.064,563.616 1131.78,561.388 1132.324,558.812 C1132.512,557.88 1132.356,556.992 1132.052,556.204 C1210.108,512.212 1246.912,409.532 1231.968,323.284 C1212.412,210.4 1121.788,130.892 1006.484,126.244 C896.832,121.828 785.476,185.016 753.92,295.68" fill="#392F1F"/>
    </g>
    <path d="M800.668,264.124 C766.192,334.532 832.516,496.632 911.04,387.476 C913.208,424.36 919.444,486.272 972.02,462.288 C1002.92,446.972 1004.588,386.336 1020.928,360.572 C1042.108,380.22 1034.576,452.084 1061.64,460.524 C1099.296,478.78 1111.412,403.588 1122.524,385.08 C1139.756,404.112 1131.452,455.532 1159.796,456.052 C1192.724,453.244 1205.5,374.124 1204.724,353.696 C1206.504,317.452 1197.716,271.36 1172.592,251.072 C1172.592,251.072 1135.224,141.072 1006.036,143.784 C876.848,146.492 848.548,166.3 800.668,264.124" fill="#542719"/>
    <path d="M808.068,264.608 C798.488,317.476 828.22,469.6 898.36,378.752 C905.584,369.38 925.136,370.076 926.14,384.5 C926.996,396.308 928.192,407.944 930.152,419.636 C934.912,448.212 964.86,459.812 980.02,429.704 C992.528,404.884 994.832,376.388 1008.012,351.664 C1012.832,342.64 1026.928,343.228 1032.848,350.368 C1051.052,372.304 1052.016,402.776 1058.444,429.432 C1066.828,464.412 1090,425.58 1095.264,411.76 C1099.856,399.656 1103.668,387.656 1109.512,376.12 C1113.928,367.448 1129.184,367.096 1134.528,374.836 C1139.1,381.384 1142.932,387.364 1145.296,395.108 C1146.376,398.768 1155.28,448.812 1168.912,431.1 C1184.32,411.024 1188.732,377.22 1188.848,352.652 C1189.14,304.312 1164.844,257.076 1135.552,218.376 C1088.296,155.9 1009.888,155.032 938.84,164.42 C873.312,173.072 844.952,214.252 817.304,269.892 C807.316,289.948 773.96,278.64 784.044,258.332 C820.012,185.968 859.664,141.148 942.672,131.352 C1030.004,121.056 1119.08,132.94 1170.188,212.18 C1184.552,234.48 1202.012,259.008 1211.272,283.364 C1225.636,321.156 1222.328,364.328 1213.708,402.968 C1209.024,423.968 1190.44,478.084 1158.748,471.868 C1116.444,463.584 1130.156,423.68 1110.52,395.34 C1118.848,394.936 1127.208,394.488 1135.536,394.064 C1119.388,425.796 1114.28,480.288 1067.796,478.688 C1015.756,476.868 1031.516,397.916 1009,370.752 C1017.288,370.328 1025.576,369.904 1033.856,369.476 C1014.34,405.968 1012.176,488.304 951.192,483.232 C902.676,479.188 898.032,425.368 895.668,386.472 C905.02,389.728 914.372,392.976 923.7,396.212 C890.716,438.18 844.56,456.864 806.772,409.628 C776.764,372.112 765.42,300.248 794.556,259.92 C798.52,254.424 809.444,256.96 808.068,264.608" fill="#542719"/>
    <path d="M1132.748,130.58 C1159.136,175.844 1095.132,243.736 1048.724,220.912 C1039.976,216.596 1036.412,202.808 1047.408,198.144 C1064.14,191.056 1081.056,190.596 1095,177.76 C1108.468,165.388 1108.528,148.04 1113.06,131.72 C1115.772,122.024 1128.452,123.184 1132.748,130.58" fill="#84522D"/>
    <path d="M996.048,229.624 C981.896,237.036 971.444,238.352 955.764,232.74 C941.24,227.532 928.928,217.08 919.544,205.076 C904.264,185.6 889.744,137.684 920.412,124.228 C927.112,121.304 935.788,124.808 937.02,132.516 C938.376,140.876 935.856,148.956 935.124,157.3 C934.272,166.664 938.436,176.908 943.528,184.596 C953.808,200.08 974.036,212.452 992.896,213.44 C1001.664,213.884 1003.428,225.752 996.048,229.624" fill="#84522D"/>
    <path d="M1072.732,150.384 C1094.476,154.836 1100.96,174.584 1102.004,194.58 C1103.108,216.052 1095.828,254.828 1074.552,265.032 C1065.648,269.328 1052.192,262.188 1054.068,251.268 C1056.82,235.196 1068.456,222.556 1071.416,205.848 C1073.236,195.548 1075.464,171.892 1065.372,164.844 C1057.244,159.152 1064.176,148.64 1072.732,150.384" fill="#84522D"/>
    <path d="M1191.736,218.9 C1195.78,244.16 1178.98,269.12 1159.116,283.036 C1140.528,296.064 1104.288,306.404 1086.944,286.268 C1082.452,281.064 1083.904,271.792 1090.584,269 C1107.348,261.972 1125.584,268.112 1142,257.268 C1157.684,246.932 1163.332,230.304 1172.356,214.892 C1177.06,206.836 1190.324,210.072 1191.736,218.9" fill="#84522D"/>
    <path d="M1023.404,267.044 C1037.924,300.948 992.992,318.272 966.992,316.22 C931.872,313.452 894.952,284.816 906.548,246.796 C908.952,238.936 921.768,237.56 924.828,245.728 C932.068,264.992 944.264,281.296 965.484,285.4 C986.664,289.484 997.116,282.008 1009.076,265.98 C1012.624,261.18 1020.848,261.064 1023.404,267.044" fill="#84522D"/>
    <path d="M1009.852,115.712 C1020.268,125.004 1027.1,133.564 1024.528,148.584 C1021.504,166.18 1010.164,179.868 997.716,191.968 C977.056,212.044 930.092,239.636 902.364,218.336 C895.532,213.092 895.324,201.612 903.956,197.776 C912.98,193.768 922.656,191.892 931.872,188.408 C944.612,183.568 956.224,177.916 967.304,169.956 C976.168,163.588 983.484,156.056 989.368,146.9 C991.192,144.072 992.544,140.784 993.088,137.432 C994.096,131.124 994.404,131.836 993.476,129.768 C989.176,120.436 1000.984,107.868 1009.852,115.712" fill="#84522D"/>
    <path d="M869.88,132.304 C862.256,151.196 849.632,167.556 846.616,188.192 C842.508,216.228 867.712,220.524 880.84,239.284 C885.992,246.696 883.632,257.656 873.796,259.532 C842.352,265.556 814.96,232.932 811.944,203.956 C808.788,173.636 826.404,136.676 851.764,119.912 C860.28,114.28 874.528,120.664 869.88,132.304" fill="#84522D"/>
    <path d="M1117.764,340.728 C1096.892,337.784 1078.928,335.752 1065.304,355.384 C1058.136,365.704 1062.372,382.312 1050.196,388.76 C1036.336,396.116 1028.208,381.908 1027.74,370.096 C1026.772,345.856 1047.176,322.26 1068.436,313.628 C1088.144,305.624 1116.292,306.964 1126.048,328.416 C1128.568,333.916 1124.42,341.656 1117.764,340.728" fill="#84522D"/>
    <g clip-path="url(#Clip_4)">
      <path d="M739.184,399.968 C640.22,383.732 540.82,421.808 501.628,519.796 C484.684,562.076 471.668,618.268 488.412,662.54 C504.804,705.896 531.252,741.576 562.916,774.904 C567.628,779.852 563.068,789.328 556.032,785.696 C550.096,782.616 544.456,779.232 539.088,775.56 C541.224,779.624 543.464,783.592 546.088,787.248 C559.62,805.928 578.704,808.78 600.66,806.92 C609.012,806.212 613.216,813.124 612.596,819.54 C612.872,819.704 613.108,819.88 613.396,820.076 C618.848,823.568 625.384,825.68 631.636,827.024 C639.092,828.624 646.74,829.732 654.372,828.828 C661.22,828.008 666.544,826.5 673.036,829.36 C674.864,830.172 676.432,831.984 677.212,834.052 C684.852,836.14 692.172,839.484 700.332,840.084 C707.02,840.592 713.996,839.928 719.488,835.592 C725.276,831.032 727.804,826.108 735.64,826.052 C737.52,826.024 739.632,826.688 741.092,828.032 C754.632,822.552 771.58,821.016 783.1,819.452 C785.656,819.108 788.376,818.788 791.176,818.428 C790.696,818.428 790.244,818.5 789.744,818.516 C775.772,818.836 769.6,798.396 784.068,793.608 C870.072,764.984 932.484,685.24 918.552,589.756 C904.668,494.56 836.072,415.836 739.184,399.968" fill="#FBD58D"/>
      <path d="M784.068,793.608 C769.6,798.396 775.772,818.836 789.744,818.516 C790.244,818.5 790.696,818.428 791.176,818.428 C788.376,818.788 785.656,819.108 783.1,819.452 C771.58,821.016 754.632,822.552 741.092,828.032 C739.632,826.688 737.52,826.024 735.64,826.052 C727.804,826.108 725.276,831.032 719.488,835.592 C713.996,839.928 707.02,840.592 700.332,840.084 C692.172,839.484 684.852,836.14 677.212,834.052 C676.432,831.984 674.864,830.172 673.036,829.36 C666.544,826.5 661.22,828.008 654.372,828.828 C646.74,829.732 639.092,828.624 631.636,827.024 C625.384,825.68 618.848,823.568 613.396,820.076 C613.108,819.88 612.872,819.704 612.596,819.54 C613.216,813.124 609.012,806.212 600.66,806.92 C578.704,808.78 559.62,805.928 546.088,787.248 C543.464,783.592 541.224,779.624 539.088,775.56 C544.456,779.232 550.096,782.616 556.032,785.696 C563.068,789.328 567.628,779.852 562.916,774.904 C531.252,741.576 504.804,705.896 488.412,662.54 C471.668,618.268 484.684,562.076 501.628,519.796 C540.82,421.808 640.22,383.732 739.184,399.968 C836.072,415.836 904.668,494.56 918.552,589.756 C932.484,685.24 870.072,764.984 784.068,793.608 z M744.244,372.036 C631.252,348.612 524.064,403.796 477.748,508.584 C442.352,588.64 453.184,697.18 518.256,758.764 C517.764,759.46 517.4,760.288 517.36,761.232 C517.264,763.868 514.508,765.468 515.204,768.6 C516.164,773.068 517.252,777.352 518.812,781.648 C522.2,791.084 527.164,799.82 533.58,807.532 C549.548,826.696 574.204,831.836 598.016,829.96 C598.156,830.216 598.252,830.46 598.42,830.74 C602.42,837.748 611.676,841.896 618.736,844.796 C631.86,850.188 655.792,854.968 669.708,846.828 C678.46,854.936 691.22,859.28 702.832,859.944 C708.42,860.256 715.484,859.148 722.172,856.796 C723.964,858.516 726.548,859.5 729.176,859.6 C743.476,860.04 758.42,849.88 772.764,847.272 C788.392,844.452 804.276,842.992 819.248,837.388 C831.164,832.896 842.5,822.444 845.156,809.56 C845.392,808.444 845.66,806.256 845.788,803.672 C914.54,766.944 950.612,669.616 948.244,597.608 C944.432,482.6 851.7,394.32 744.244,372.036" fill="#392F1F"/>
    </g>
    <path d="M910.52,555.672 C926.916,632.336 823.304,773.54 773.56,648.612 C762.516,683.868 741.472,742.428 696.268,706.416 C670.004,684.076 683.08,624.844 673.464,595.884 C648.156,609.82 638.052,681.368 609.752,682.996 C568.796,691.588 575.256,615.704 568.956,595.048 C547.628,609.344 543.228,661.24 515.604,654.88 C484.336,644.18 491.108,564.32 496.808,544.692 C503.856,509.096 523.552,466.508 552.844,452.908 C552.844,452.908 615.748,355.236 740.428,389.16 C865.112,423.088 887.776,449.16 910.52,555.672" fill="#542719"/>
    <path d="M903.228,554.344 C899.72,607.964 834.016,748.356 787.98,643.216 C783.24,632.376 764.104,628.312 759.632,642.06 C755.944,653.316 751.96,664.312 747.232,675.188 C735.68,701.748 703.824,705.748 696.404,672.868 C690.284,645.756 694.952,617.552 688.152,590.376 C685.66,580.452 671.844,577.6 664.368,583.096 C641.4,599.968 633.076,629.3 620.38,653.608 C603.776,685.516 590.7,642.224 588.94,627.54 C587.416,614.688 586.628,602.116 583.752,589.508 C581.568,580.024 566.852,575.992 559.788,582.208 C553.772,587.448 548.604,592.324 544.436,599.264 C542.5,602.552 521.736,648.948 512.804,628.46 C502.716,605.248 506.624,571.384 512.46,547.524 C523.892,500.552 558.908,460.608 596.7,430.156 C657.684,380.992 733.968,399.14 800.624,425.46 C862.104,449.732 879.652,496.556 892.992,557.232 C897.828,579.116 932.928,576.224 928.06,554.076 C910.692,475.156 883.08,422.068 804.92,392.456 C722.684,361.304 633.38,351.256 564.596,415.756 C545.256,433.912 522.376,453.48 507.496,474.868 C484.404,508.052 477.156,550.74 476.156,590.32 C475.612,611.828 480.532,668.836 512.788,670.48 C555.836,672.688 552.2,630.656 578.116,607.912 C570.136,605.504 562.132,603.044 554.156,600.616 C562.136,635.312 553.892,689.42 599.376,699.124 C650.308,709.968 654.144,629.548 682.572,608.656 C674.632,606.232 666.696,603.812 658.76,601.388 C668.852,641.524 651.012,721.936 711.404,731.788 C759.452,739.612 777,688.524 788.712,651.36 C778.852,652.248 769,653.14 759.16,654.02 C780.996,702.728 821.248,732.04 869.352,695.36 C907.556,666.232 935.972,599.256 917.48,553.068 C914.96,546.78 903.748,546.592 903.228,554.344" fill="#542719"/>
    <path d="M592.912,370.192 C556.34,407.712 601.996,489.084 652.544,478.188 C662.08,476.116 668.876,463.608 659.34,456.42 C644.824,445.488 628.524,440.94 618.108,425.112 C608.032,409.844 612.176,393 611.736,376.068 C611.452,366 598.872,364.056 592.912,370.192" fill="#84522D"/>
    <path d="M715.644,470.904 C727.572,481.524 737.4,485.336 753.972,483.688 C769.324,482.156 783.8,474.992 795.816,465.62 C815.356,450.428 841.056,407.46 814.556,386.972 C808.768,382.516 799.5,383.812 796.432,390.988 C793.096,398.776 793.58,407.216 792.272,415.488 C790.832,424.788 784.308,433.712 777.504,439.94 C763.788,452.472 741.16,459.572 722.624,455.964 C714.004,454.272 709.424,465.36 715.644,470.904" fill="#84522D"/>
    <path d="M707.632,356.172 C685.46,355.224 674.384,372.808 668.524,391.96 C662.256,412.524 659.92,451.908 678.092,466.96 C685.692,473.288 700.476,469.616 701.304,458.568 C702.524,442.312 694.3,427.228 695.476,410.3 C696.2,399.872 699.772,376.38 711.268,371.98 C720.536,368.432 716.356,356.552 707.632,356.172" fill="#84522D"/>
    <path d="M816.056,453.052 C806.012,476.584 816.272,504.868 832.168,523.188 C847.044,540.324 879.7,559.136 901.408,543.804 C907.028,539.84 907.864,530.492 902.06,526.168 C887.5,515.288 868.32,516.828 855.012,502.328 C842.304,488.5 840.848,471 835.832,453.86 C833.216,444.904 819.568,444.832 816.056,453.052" fill="#84522D"/>
    <path d="M777.872,431.248 C755.576,460.624 794.972,488.32 820.696,492.624 C855.436,498.448 898.196,479.612 896.16,439.916 C895.724,431.708 883.632,427.268 878.676,434.452 C866.988,451.388 851.208,464.248 829.628,463.092 C808.088,461.92 799.756,452.14 792.028,433.692 C789.76,428.172 781.808,426.068 777.872,431.248" fill="#84522D"/>
    <path d="M712.576,465.468 C700.22,471.96 691.516,478.608 690.372,493.804 C689.04,511.608 696.732,527.64 705.876,542.388 C721.06,566.876 759.94,605.02 792,591.076 C799.9,587.64 802.884,576.552 795.44,570.74 C787.66,564.672 778.72,560.5 770.62,554.888 C759.436,547.108 749.532,538.808 740.716,528.404 C733.664,520.076 728.384,511 724.896,500.688 C723.812,497.508 723.296,493.984 723.584,490.604 C724.132,484.236 723.656,484.856 725.06,483.068 C731.492,475.056 723.08,460.008 712.576,465.468" fill="#84522D"/>
    <path d="M875.312,411.008 C878.132,431.188 886.416,450.12 884.344,470.872 C881.536,499.06 856.044,497.128 838.76,512.148 C831.972,518.092 831.604,529.296 840.692,533.504 C869.74,546.96 904.216,521.944 914.168,494.56 C924.576,465.912 916.436,425.788 895.888,403.376 C888.996,395.848 873.624,398.592 875.312,411.008" fill="#84522D"/>
    <path d="M532.32,460.068 C553.284,462.268 571.2,464.648 579.668,486.996 C584.124,498.74 575.988,513.832 586.24,523.04 C597.904,533.532 609.236,521.716 612.544,510.368 C619.356,487.084 605.276,459.248 586.748,445.72 C569.564,433.192 541.928,427.668 527.264,446.116 C523.492,450.84 525.636,459.36 532.32,460.068" fill="#84522D"/>
    <path d="M323.504,224.836 C275.768,235.564 231.316,278.212 200.22,313.628 C173.22,344.38 133.152,402.552 165.324,442.904 C199.688,485.992 246.192,407.728 260.684,383.728 C272.648,363.92 284.092,344.952 297.652,326.148 C316.548,299.944 341.444,263.26 377.896,265.672 C373.228,261.004 368.56,256.336 363.896,251.672 C362.416,289.428 323.192,320.608 304.456,350.948 C290.212,374.012 278.236,415.016 300.724,437.252 C336.28,472.404 393.476,366.496 407.54,346.12 C413.42,337.6 419.904,330.648 427.344,323.416 C433.832,317.112 440.664,311.516 448.556,307.064 C459.308,300.996 455.684,315.164 454.036,320.416 C448.7,337.42 437.78,352.88 429.848,368.744 C422.832,382.772 419.964,398.208 419.416,413.824 C418.568,437.772 438.368,448.888 458.252,436.112 C481.2,421.364 498.484,396.22 514.816,374.944 C523.248,363.964 531.368,352.74 539.316,341.404 C549.708,326.58 525.42,312.608 515.14,327.272 C500.856,347.64 486,367.62 469.784,386.5 C462.064,395.488 453.848,405.048 444.12,411.936 C435.424,418.092 444.584,410.704 447.98,419.228 C446.152,414.636 447.64,407.932 448.328,403.292 C453.1,370.988 481.92,346.444 484.152,313.492 C485.072,299.888 478.184,285.692 465.408,279.924 C449.676,272.82 433.04,282.34 420.836,292.052 C400.704,308.076 386.76,326.84 372.512,347.94 C357.648,369.956 342.2,398.452 319.8,413.764 C314.504,417.384 317.156,413.412 320.316,417.548 C316.796,412.948 316.808,405.492 316.688,400.08 C316.268,381.328 328.916,363.656 339.28,349.124 C360.792,318.96 390.352,291.008 391.896,251.672 C392.208,243.672 385.268,238.16 377.896,237.672 C321.592,233.948 288.092,292.672 259.164,331.72 C248.048,346.728 239.96,364.224 230.076,380.08 C220.836,394.904 207.604,419.856 190.172,426.46 C178.936,430.712 183.884,394.548 185.028,390.552 C191.54,367.788 207.7,347.456 223.04,329.984 C250.052,299.224 289.508,261.148 330.948,251.836 C348.564,247.88 341.092,220.884 323.504,224.836" fill="#FBD58D"/>
    <path d="M699.32,416.068 C704.376,404.676 705.5,397.072 699.32,385.936 C696.16,380.244 689.584,378.188 683.504,379.504 C600.616,397.448 515.928,467.4 506.512,555.54 C504.364,575.62 517.752,593.16 538.96,585.852 C561.912,577.944 581.248,556.32 597.956,539.688 C613,524.708 713.508,406.56 733.808,433.712 C740,442.004 715.052,471.532 710.696,478.36 C702.852,490.648 695.036,503.148 687.804,515.812 C676.808,535.068 655.888,582.076 690.844,591.396 C717.756,598.572 741.788,571.008 757.5,553.24 C776.384,531.896 791.276,507.648 809.128,485.568 C820.372,471.672 800.688,451.728 789.332,465.772 C770.544,488.996 754.676,514.256 734.824,536.7 C725.976,546.704 715.156,559.42 702.216,564.124 C698.356,565.532 698.772,565.076 699.452,560.312 C700.796,550.892 705.552,542.02 709.904,533.72 C724.444,506.012 748.916,480.804 759.052,451.18 C771.644,414.376 734.932,392.868 703.1,407.564 C650.504,431.852 613.228,485.36 572.96,525.032 C563.76,534.096 554.28,543.14 543.952,550.928 C540.084,553.844 536,556.436 531.716,558.696 C525.856,561.772 531.112,557.552 534.092,562.492 C530.66,556.796 539.12,534.204 541.384,527.484 C549.868,502.304 567.776,480.712 586.568,462.524 C615.136,434.872 652.14,414.904 690.952,406.504 C685.68,404.36 680.412,402.216 675.14,400.068 C675.14,400.692 675.14,401.312 675.14,401.936 C667.876,418.284 692,432.544 699.32,416.068" fill="#FBD58D"/>
    <path d="M834.664,241.772 C830.092,247.02 825.9,252.52 821.332,257.772 C809.592,271.26 828.652,290.84 841.128,277.572 C864.056,253.188 890.068,231.596 917.832,212.944 C940.18,197.924 979.676,171.708 1008.164,183.76 C1006.492,177.376 1004.816,170.988 1003.14,164.604 C980.044,207.704 927.46,237.304 937.728,292.724 C939.076,299.988 948.152,304.72 954.952,302.504 C1010.924,284.276 1050.464,232.184 1109.616,222.504 C1104.344,215.648 1099.076,208.792 1093.804,201.936 C1079.36,228.12 1035.436,270.228 1082.828,290.424 C1116.188,304.644 1160.22,271.576 1187.628,255.76 C1203.256,246.74 1189.164,222.54 1173.496,231.584 C1151.22,244.436 1128.896,258.968 1103.616,265.012 C1100.136,265.844 1090.616,266.492 1088.82,261.932 C1087.5,258.576 1093.84,250.656 1095.452,248.116 C1102.464,237.06 1111.636,227.572 1117.984,216.068 C1124.352,204.52 1113.992,193.568 1102.168,195.504 C1042.076,205.336 1003.648,257.22 947.504,275.504 C953.248,278.764 958.988,282.024 964.728,285.284 C957.188,244.604 1009.952,211.144 1027.32,178.736 C1030.556,172.688 1029.508,162.636 1022.296,159.584 C986.212,144.316 948.084,162.064 916.668,180.572 C881.736,201.152 849.08,228.256 821.332,257.772 C827.928,264.372 834.528,270.968 841.128,277.572 C845.692,272.32 849.888,266.82 854.46,261.572 C866.256,248.016 846.536,228.128 834.664,241.772" fill="#FBD58D"/>
    <path d="M741.616,32.836 C667.516,13.74 510.624,34 507.896,134.336 C507.668,142.648 514.492,147.44 521.896,148.336 C554.996,152.344 589.728,129.092 618.696,116.26 C656.592,99.472 710.7,90.46 750.168,105.172 C747.38,98.316 744.592,91.46 741.804,84.604 C728.628,109.864 697,118.884 672.46,129.22 C646.648,140.096 622.996,152.56 605.808,175.272 C602.108,180.156 603.88,188.256 607.996,192.236 C633.844,217.236 685.504,194.816 713.396,185.312 C736.652,177.384 759.568,168.504 782.744,160.348 C800.576,154.072 820.096,146.156 839.228,145.672 C857.252,145.216 857.296,117.212 839.228,117.672 C801.284,118.632 762.872,137.82 727.832,150.556 C707.168,158.068 686.376,165.348 665.044,170.736 C656.612,172.868 635.268,179.668 627.796,172.44 C628.524,178.092 629.252,183.748 629.984,189.404 C664.14,144.276 738.312,151.772 765.984,98.736 C770.428,90.216 766.3,81.408 757.616,78.172 C718.012,63.412 671.036,71.664 631.256,81.932 C595.908,91.056 559.544,124.896 521.896,120.336 C526.56,125.004 531.228,129.672 535.896,134.336 C537.024,92.848 581.496,74.164 615.752,64.692 C652.724,54.468 696.6,50.152 734.168,59.836 C751.668,64.348 759.088,37.34 741.616,32.836" fill="#FBD58D"/>
    <path d="M628.248,529.956 L687.592,515.888 L724.932,538.404 L652.096,553.196 L628.248,529.956" fill="#4EAF46"/>
    <path d="M711.572,405.032 L762.468,443.66 L769.332,400.596 L724.18,374.184 L711.572,405.032" fill="#4EAF46"/>
    <path d="M549.92,448.852 L557.8,512.256 L593.392,487.1 L580.808,436.332 L549.92,448.852" fill="#4EAF46"/>
    <path d="M850.964,546.76 L793.492,520.48 L796.196,563.5 L845.468,579.232 L850.964,546.76" fill="#4EAF46"/>
    <path d="M678.34,440.56 L620.852,414.272 L623.556,457.304 L672.86,473.052 L678.34,440.56" fill="#4EAF46"/>
    <path d="M1112.112,248.092 L1157.472,293.084 L1115.788,305.88 L1083.34,264.86 L1112.112,248.092" fill="#4EAF46"/>
    <path d="M954.288,299.24 L895.552,324.388 L899.328,280.948 L949.528,266.252 L954.288,299.24" fill="#4EAF46"/>
    <path d="M1015.192,199.868 L992.196,259.476 L963.756,226.448 L988.268,180.236 L1015.192,199.868" fill="#4EAF46"/>
    <path d="M861.076,193.792 L923.2,182.212 L910.156,223.292 L858.536,226.624 L861.076,193.792" fill="#4EAF46"/>
    <path d="M1043.772,176.752 L1105.916,165.172 L1092.864,206.276 L1041.216,209.608 L1043.772,176.752" fill="#4EAF46"/>
    <path d="M258.904,337.972 L213.544,382.968 L255.228,395.764 L287.676,354.74 L258.904,337.972" fill="#4EAF46"/>
    <path d="M416.728,389.124 L475.464,414.272 L471.688,370.828 L421.488,356.136 L416.728,389.124" fill="#4EAF46"/>
    <path d="M355.82,289.748 L378.82,349.36 L407.256,316.332 L382.748,270.12 L355.82,289.748" fill="#4EAF46"/>
    <path d="M509.94,283.672 L447.816,272.096 L460.864,313.176 L512.476,316.504 L509.94,283.672" fill="#4EAF46"/>
    <path d="M327.244,266.636 L265.1,255.056 L278.148,296.156 L329.8,299.488 L327.244,266.636" fill="#4EAF46"/>
    <path d="M758.124,176.948 L698.78,162.884 L661.44,185.396 L734.276,200.188 L758.124,176.948" fill="#4EAF46"/>
    <path d="M674.8,52.024 L623.904,90.652 L617.04,47.588 L662.188,21.172 L674.8,52.024" fill="#4EAF46"/>
    <path d="M836.452,95.844 L828.568,159.252 L792.984,134.096 L805.56,83.32 L836.452,95.844" fill="#4EAF46"/>
    <path d="M535.408,193.752 L592.88,167.468 L590.172,210.488 L540.904,226.224 L535.408,193.752" fill="#4EAF46"/>
    <path d="M708.028,87.552 L765.516,61.264 L762.816,104.296 L713.508,120.048 L708.028,87.552" fill="#4EAF46"/>
  </g>
</svg>
