<?xml version="1.0" encoding="UTF-8" standalone="no"?>
<!-- Uploaded to: SVG Repo, www.svgrepo.com, Transformed by: SVG Repo Mixer Tools -->

<svg
   version="1.1"
   id="Layer_1"
   viewBox="0 0 444.791 444.791"
   xml:space="preserve"
   width="800px"
   height="800px"
   fill="#000000"
   transform="matrix(-1, 0, 0, 1, 0, 0)"
   sodipodi:docname="bear.svg"
   inkscape:version="1.2.2 (b0a8486541, 2022-12-01)"
   xmlns:inkscape="http://www.inkscape.org/namespaces/inkscape"
   xmlns:sodipodi="http://sodipodi.sourceforge.net/DTD/sodipodi-0.dtd"
   xmlns="http://www.w3.org/2000/svg"
   xmlns:svg="http://www.w3.org/2000/svg"><defs
   id="defs74" /><sodipodi:namedview
   id="namedview72"
   pagecolor="#ffffff"
   bordercolor="#000000"
   borderopacity="0.25"
   inkscape:showpageshadow="2"
   inkscape:pageopacity="0.0"
   inkscape:pagecheckerboard="0"
   inkscape:deskcolor="#d1d1d1"
   showgrid="false"
   inkscape:zoom="0.6575"
   inkscape:cx="400.76046"
   inkscape:cy="400"
   inkscape:window-width="1366"
   inkscape:window-height="696"
   inkscape:window-x="0"
   inkscape:window-y="40"
   inkscape:window-maximized="1"
   inkscape:current-layer="Layer_1" />

<g
   id="SVGRepo_bgCarrier"
   stroke-width="0" />

<g
   id="SVGRepo_tracerCarrier"
   stroke-linecap="round"
   stroke-linejoin="round" />

<g
   id="SVGRepo_iconCarrier"
   transform="matrix(-1,0,0,1,444.791,0)"> <g
   id="g68"> <g
   id="g10"> <path
   style="fill:#65513c"
   d="M 254.917,351.415 V 251.466 H 191.59 v 102.168 c 0,8.568 7.011,15.578 15.579,15.578 h 65.543 c 0,-9.826 -7.969,-17.797 -17.795,-17.797 z"
   id="path4" /> <path
   style="opacity:0.3;fill:#222222"
   d="M 254.917,351.415 V 251.466 H 191.59 v 102.168 c 0,8.568 7.011,15.578 15.579,15.578 h 65.543 c 0,-9.826 -7.969,-17.797 -17.795,-17.797 z"
   id="path6" /> <rect
   x="191.59"
   y="251.466"
   style="opacity:0.3;fill:#222222"
   width="63.327"
   height="62.387001"
   id="rect8" /> </g> <g
   id="g18"> <path
   style="fill:#65513c"
   d="M 99.01,351.415 V 251.466 H 35.684 v 102.168 c 0,8.568 7.011,15.578 15.58,15.578 h 65.541 c 0,-9.826 -7.967,-17.797 -17.795,-17.797 z"
   id="path12" /> <path
   style="opacity:0.3;fill:#222222"
   d="M 99.01,351.415 V 251.466 H 35.684 v 102.168 c 0,8.568 7.011,15.578 15.58,15.578 h 65.541 c 0,-9.826 -7.967,-17.797 -17.795,-17.797 z"
   id="path14" /> <rect
   x="35.683998"
   y="251.466"
   style="opacity:0.3;fill:#222222"
   width="63.326"
   height="62.387001"
   id="rect16" /> </g> <g
   id="g24"> <path
   style="fill:#65513c"
   d="M 52.82,147.839 C 52.82,133.257 40.996,121.431 26.409,121.431 11.823,121.431 0,133.257 0,147.839 c 0,14.59 11.823,26.41 26.409,26.41 14.587,0 26.411,-11.82 26.411,-26.41 z"
   id="path20" /> <path
   style="opacity:0.3;fill:#222222"
   d="m 48.367,133.169 c -14.544,9.488 -26.743,22.273 -35.544,37.289 3.974,2.393 8.611,3.791 13.586,3.791 14.587,0 26.411,-11.82 26.411,-26.41 0,-5.43 -1.644,-10.473 -4.453,-14.67 z"
   id="path22" /> </g> <path
   style="fill:#65513c"
   d="m 408.436,147.839 c -11.389,0 -22.65,-15.227 -32.919,-27.94 -2.575,-3.613 -5.488,-6.967 -8.694,-10.018 -0.093,-0.094 -0.186,-0.195 -0.279,-0.287 l -0.006,0.014 C 354.132,97.928 337.433,90.762 319.05,90.762 c -20.026,0 -38.06,8.504 -50.715,22.082 l -0.006,-0.016 c -12.188,12.943 -27.11,14.807 -31.438,14.807 H 104.243 v 0.252 c -2.085,-0.148 -4.184,-0.252 -6.307,-0.252 -47.719,0 -86.404,38.684 -86.404,86.404 v 139.594 c 0,8.568 7.011,15.578 15.58,15.578 h 65.543 c 0,-9.826 -7.967,-17.797 -17.796,-17.797 v -50.973 h 140.1 v 53.191 c 0,8.568 7.011,15.578 15.579,15.578 h 65.543 c 0,-9.826 -7.967,-17.797 -17.795,-17.797 v -56.949 c 0,-25.748 26.117,-61.627 54.464,-65.766 33.459,-3.189 78.281,-16.754 94.353,-31.932 0.233,-0.209 0.462,-0.424 0.69,-0.641 l 0.004,-0.004 c 5.336,-5.102 8.668,-12.289 8.668,-20.256 0.001,-15.475 -12.55,-28.026 -28.029,-28.026 z"
   id="path26" /> <path
   style="opacity:0.1;fill:#222222"
   d="M 177.342,300.443 V 127.636 h -73.099 v 0.252 c -2.085,-0.148 -4.184,-0.252 -6.307,-0.252 -47.719,0 -86.404,38.684 -86.404,86.404 v 139.594 c 0,8.568 7.011,15.578 15.58,15.578 h 65.543 c 0,-9.826 -7.967,-17.797 -17.796,-17.797 v -50.973 h 102.483 z"
   id="path28" /> <g
   id="g36"> <path
   style="fill:#65513c"
   d="m 320.478,95.091 c 1.625,-0.668 2.398,-2.527 1.728,-4.148 -0.037,-0.094 -0.08,-0.184 -0.123,-0.273 l 0.01,-0.004 c -7.147,-12.85 -22.943,-18.6 -36.878,-12.865 -13.933,5.736 -21.105,20.941 -17.138,35.102 l 0.015,-0.004 c 0.03,0.09 0.064,0.186 0.101,0.277 0.67,1.621 2.525,2.4 4.152,1.732 z"
   id="path30" /> <path
   style="fill:#ff8189"
   d="m 291.909,94.644 c -6.194,2.549 -9.465,9.18 -8.008,15.506 l 24.605,-10.131 c -3.412,-5.516 -10.403,-7.924 -16.597,-5.375 z"
   id="path32" /> <path
   style="opacity:0.3;fill:#222222"
   d="m 285.215,77.8 c -13.933,5.736 -21.105,20.941 -17.138,35.102 l 0.015,-0.004 c 0.03,0.09 0.064,0.186 0.101,0.277 0.67,1.621 2.525,2.4 4.152,1.732 l 24.065,-9.908 z"
   id="path34" /> </g> <circle
   style="fill:#333e48"
   cx="365.58099"
   cy="136.642"
   r="6.803"
   id="circle38" /> <g
   style="opacity:0.1"
   id="g64"> <line
   style="fill:none;stroke:#222222;stroke-width:3;stroke-miterlimit:10"
   x1="201.576"
   y1="176.74899"
   x2="201.576"
   y2="188.52299"
   id="line40" /> <line
   style="fill:none;stroke:#222222;stroke-width:3;stroke-miterlimit:10"
   x1="163.291"
   y1="140.995"
   x2="163.291"
   y2="152.765"
   id="line42" /> <line
   style="fill:none;stroke:#222222;stroke-width:3;stroke-miterlimit:10"
   x1="244.507"
   y1="146.87801"
   x2="244.507"
   y2="158.65199"
   id="line44" /> <line
   style="fill:none;stroke:#222222;stroke-width:3;stroke-miterlimit:10"
   x1="312.021"
   y1="191.29201"
   x2="312.021"
   y2="203.064"
   id="line46" /> <line
   style="fill:none;stroke:#222222;stroke-width:3;stroke-miterlimit:10"
   x1="209.886"
   y1="270.89001"
   x2="209.886"
   y2="282.659"
   id="line48" /> <line
   style="fill:none;stroke:#222222;stroke-width:3;stroke-miterlimit:10"
   x1="33.845001"
   y1="288.198"
   x2="33.845001"
   y2="299.97"
   id="line50" /> <line
   style="fill:none;stroke:#222222;stroke-width:3;stroke-miterlimit:10"
   x1="62.207001"
   y1="245.58299"
   x2="62.207001"
   y2="257.353"
   id="line52" /> <line
   style="fill:none;stroke:#222222;stroke-width:3;stroke-miterlimit:10"
   x1="263.897"
   y1="210.683"
   x2="263.897"
   y2="221.06799"
   id="line54" /> <line
   style="fill:none;stroke:#222222;stroke-width:3;stroke-miterlimit:10"
   x1="85.247002"
   y1="182.636"
   x2="85.247002"
   y2="191.29201"
   id="line56" /> <line
   style="fill:none;stroke:#222222;stroke-width:3;stroke-miterlimit:10"
   x1="124.717"
   y1="161.89799"
   x2="124.717"
   y2="170.556"
   id="line58" /> <line
   style="fill:none;stroke:#222222;stroke-width:3;stroke-miterlimit:10"
   x1="44.738998"
   y1="166.226"
   x2="44.738998"
   y2="174.882"
   id="line60" /> <line
   style="fill:none;stroke:#222222;stroke-width:3;stroke-miterlimit:10"
   x1="127.486"
   y1="234.222"
   x2="127.486"
   y2="241.841"
   id="line62" /> </g> <path
   style="fill:#333e48"
   d="m 444.791,157.513 c 0,-7.352 -6.442,-9.289 -14.38,-9.289 -7.942,0 -14.377,1.938 -14.377,9.289 0,7.355 10.037,11.768 14.377,11.768 4.34,0 14.38,-4.413 14.38,-11.768 z"
   id="path66" /> </g> </g>

</svg>
