<?xml version="1.0" encoding="UTF-8" standalone="no"?>
<!-- Uploaded to: SVG Repo, www.svgrepo.com, Transformed by: SVG Repo Mixer Tools -->

<svg
   height="800px"
   width="800px"
   version="1.1"
   id="Layer_1"
   viewBox="0 0 377.814 377.814"
   xml:space="preserve"
   fill="#000000"
   transform="matrix(-1, 0, 0, 1, 0, 0)"
   sodipodi:docname="lion.svg"
   inkscape:version="1.2.2 (b0a8486541, 2022-12-01)"
   xmlns:inkscape="http://www.inkscape.org/namespaces/inkscape"
   xmlns:sodipodi="http://sodipodi.sourceforge.net/DTD/sodipodi-0.dtd"
   xmlns="http://www.w3.org/2000/svg"
   xmlns:svg="http://www.w3.org/2000/svg"><defs
   id="defs40" /><sodipodi:namedview
   id="namedview38"
   pagecolor="#ffffff"
   bordercolor="#000000"
   borderopacity="0.25"
   inkscape:showpageshadow="2"
   inkscape:pageopacity="0.0"
   inkscape:pagecheckerboard="0"
   inkscape:deskcolor="#d1d1d1"
   showgrid="false"
   inkscape:zoom="0.6575"
   inkscape:cx="400.76046"
   inkscape:cy="400"
   inkscape:window-width="1366"
   inkscape:window-height="696"
   inkscape:window-x="0"
   inkscape:window-y="40"
   inkscape:window-maximized="1"
   inkscape:current-layer="Layer_1" />

<g
   id="SVGRepo_bgCarrier"
   stroke-width="0" />

<g
   id="SVGRepo_tracerCarrier"
   stroke-linecap="round"
   stroke-linejoin="round" />

<g
   id="SVGRepo_iconCarrier"
   transform="matrix(-1,0,0,1,377.81354,0)"> <g
   id="g34"> <path
   style="fill:#d9c47c"
   d="M 311.678,340.703 V 238.215 c 0,-13.804 -11.191,-24.996 -24.995,-24.996 -13.805,0 -24.996,11.191 -24.996,24.996 v 114.603 c 0,13.805 11.191,24.996 24.996,24.996 h 45.143 c 3.956,0 7.162,-3.206 7.162,-7.162 -10e-4,-15.679 -11.997,-28.55 -27.31,-29.949 z"
   id="path4" /> <path
   style="fill:#d9c47c"
   d="m 153.136,175.861 c -23.137,0 -41.893,18.756 -41.893,41.893 v 41.295 c -14.452,2.467 -25.455,15.043 -25.455,30.198 v 63.571 c 0,13.805 11.191,24.996 24.996,24.996 h 45.143 c 3.956,0 7.162,-3.206 7.162,-7.162 0,-15.363 -11.52,-28.022 -26.391,-29.843 v -32.317 h 9.31 c 27.073,0 49.02,-21.946 49.02,-49.019 v -41.719 c 0,-23.137 -18.756,-41.893 -41.892,-41.893 z"
   id="path6" /> <path
   style="fill:#fadf8d"
   d="M 301.141,150.471 H 87.988 c -13.099,0 -25.148,4.463 -34.738,11.935 C 26.445,168.27 6.312,192.182 6.312,220.72 v 19.631 h 12 V 220.72 c 0,-15.264 7.215,-28.866 18.404,-37.603 -3.401,7.271 -5.311,15.379 -5.311,23.937 v 54.952 c -9.864,5.092 -16.613,15.375 -16.613,27.241 v 63.571 c 0,13.805 11.191,24.996 24.996,24.996 h 45.143 c 3.956,0 7.162,-3.206 7.162,-7.162 0,-15.363 -11.52,-28.022 -26.391,-29.843 v -32.317 h 9.311 c 14.804,0 28.064,-6.571 37.053,-16.946 h 78.625 v 61.272 c 0,13.805 11.191,24.996 24.996,24.996 h 45.143 c 3.956,0 7.162,-3.206 7.162,-7.162 0,-15.679 -11.996,-28.55 -27.309,-29.949 v -49.157 h 13.503 c 37.755,0 68.36,-30.606 68.36,-68.361 v -51.31 c -10e-4,-11.821 -9.584,-21.404 -21.405,-21.404 z"
   id="path8" /> <path
   style="fill:#ff9e16"
   d="m 22.287,236.752 -2.295,12.716 c -0.765,4.239 -4.823,7.058 -9.063,6.292 -3.29,-0.594 -5.725,-3.187 -6.292,-6.292 L 2.342,236.752 c -0.993,-5.508 2.665,-10.779 8.173,-11.772 5.509,-0.994 10.778,2.666 11.772,8.173 0.218,1.213 0.202,2.452 0,3.599 z"
   id="path10" /> <g
   id="g32"> <g
   id="g16"> <path
   style="fill:#fadf8d"
   d="m 337.313,46.823 c 11.017,-7.713 26.2,-5.036 33.916,5.98 7.713,11.017 5.035,26.201 -5.98,33.915 z"
   id="path12" /> <path
   style="fill:#bf9b5f"
   d="m 342.279,53.916 c 7.101,-4.971 16.886,-3.246 21.857,3.854 4.972,7.1 3.245,16.885 -3.854,21.856 z"
   id="path14" /> </g> <circle
   style="fill:#ff9e16"
   cx="253.22099"
   cy="120.734"
   r="120.734"
   id="circle18" /> <path
   style="fill:#fadf8d"
   d="M 366.63,123.367 339.698,82.562 c -0.749,-1.21 -1.531,-2.398 -2.35,-3.56 l -0.019,-0.029 -0.001,0.001 c -9.764,-13.869 -24.261,-24.161 -41.142,-28.54 -42.981,-5.481 -74.712,30.199 -74.712,70.3 0,40.111 32.517,72.627 72.627,72.627 h 51.654 c 15.242,0 27.599,-12.357 27.599,-27.599 V 141.41 c 0.001,-6.901 -2.538,-13.205 -6.724,-18.043 z"
   id="path20" /> <circle
   style="fill:#333e48"
   cx="294.16901"
   cy="113.02"
   r="7.3049998"
   id="circle22" /> <path
   style="fill:#333e48"
   d="m 361.083,142.849 c -4.523,4.69 -12.059,4.824 -16.745,0.299 L 339.11,138.1 c -4.688,-4.526 -3.192,-8.229 3.324,-8.229 h 19.317 c 6.516,0 8.146,3.837 3.623,8.528 z"
   id="path24" /> <g
   id="g30"> <path
   style="fill:#fadf8d"
   d="m 220.352,55.752 c -11.017,-7.714 -26.2,-5.037 -33.915,5.98 -7.713,11.017 -5.036,26.201 5.979,33.915 z"
   id="path26" /> <path
   style="fill:#bf9b5f"
   d="m 215.388,62.845 c -7.102,-4.971 -16.887,-3.246 -21.857,3.854 -4.972,7.099 -3.246,16.885 3.853,21.856 z"
   id="path28" /> </g> </g> </g> </g>

</svg>
