<?xml version="1.0" encoding="UTF-8" standalone="no"?>
<!-- Uploaded to: SVG Repo, www.svgrepo.com, Transformed by: SVG Repo Mixer Tools -->

<svg
   version="1.1"
   id="Layer_1"
   viewBox="0 0 428.348 428.348"
   xml:space="preserve"
   width="800px"
   height="800px"
   fill="#000000"
   transform="matrix(-1, 0, 0, 1, 0, 0)"
   sodipodi:docname="sheep.svg"
   inkscape:version="1.2.2 (b0a8486541, 2022-12-01)"
   xmlns:inkscape="http://www.inkscape.org/namespaces/inkscape"
   xmlns:sodipodi="http://sodipodi.sourceforge.net/DTD/sodipodi-0.dtd"
   xmlns="http://www.w3.org/2000/svg"
   xmlns:svg="http://www.w3.org/2000/svg"><defs
   id="defs62" /><sodipodi:namedview
   id="namedview60"
   pagecolor="#ffffff"
   bordercolor="#000000"
   borderopacity="0.25"
   inkscape:showpageshadow="2"
   inkscape:pageopacity="0.0"
   inkscape:pagecheckerboard="0"
   inkscape:deskcolor="#d1d1d1"
   showgrid="false"
   inkscape:zoom="0.6575"
   inkscape:cx="400.76046"
   inkscape:cy="400"
   inkscape:window-width="1366"
   inkscape:window-height="696"
   inkscape:window-x="0"
   inkscape:window-y="40"
   inkscape:window-maximized="1"
   inkscape:current-layer="Layer_1" />

<g
   id="SVGRepo_bgCarrier"
   stroke-width="0"
   transform="matrix(-1,0,0,1,428.348,0)" />

<g
   id="SVGRepo_tracerCarrier"
   stroke-linecap="round"
   stroke-linejoin="round"
   transform="matrix(-1,0,0,1,428.348,0)" />

<g
   id="SVGRepo_iconCarrier"
   transform="matrix(-1,0,0,1,428.348,0)"> <g
   id="g56"> <g
   id="g12"> <g
   id="g8"> <rect
   x="124.926"
   y="315.896"
   style="fill:#5c6670"
   width="21.806999"
   height="40.332001"
   id="rect4" /> <rect
   x="124.926"
   y="356.228"
   style="fill:#2d3740"
   width="21.806999"
   height="8.6660004"
   id="rect6" /> </g> <path
   style="fill:#c8c9c9"
   d="m 104.387,258.125 c 0,-17.365 14.078,-31.441 31.443,-31.441 17.365,0 31.441,14.076 31.441,31.441 v 37.232 c 0,17.365 -14.076,31.441 -31.441,31.441 -17.365,0 -31.443,-14.076 -31.443,-31.441 v -37.232 z"
   id="path10" /> </g> <g
   id="g22"> <g
   id="g18"> <rect
   x="280.48999"
   y="315.896"
   style="fill:#5c6670"
   width="21.806999"
   height="40.332001"
   id="rect14" /> <rect
   x="280.48999"
   y="356.228"
   style="fill:#2d3740"
   width="21.806999"
   height="8.6660004"
   id="rect16" /> </g> <path
   style="fill:#c8c9c9"
   d="m 259.951,258.125 c 0,-17.365 14.078,-31.441 31.443,-31.441 17.365,0 31.441,14.076 31.441,31.441 v 37.232 c 0,17.365 -14.076,31.441 -31.441,31.441 -17.365,0 -31.443,-14.076 -31.443,-31.441 z"
   id="path20" /> </g> <g
   id="g32"> <g
   id="g28"> <rect
   x="85.366997"
   y="315.896"
   style="fill:#7d868c"
   width="21.806999"
   height="40.332001"
   id="rect24" /> <rect
   x="85.366997"
   y="356.228"
   style="fill:#333e48"
   width="21.806999"
   height="8.6660004"
   id="rect26" /> </g> <path
   style="fill:#dadbdc"
   d="m 64.828,258.125 c 0,-17.365 14.077,-31.441 31.442,-31.441 17.365,0 31.442,14.076 31.442,31.441 v 37.232 c 0,17.365 -14.077,31.441 -31.442,31.441 -17.365,0 -31.442,-14.076 -31.442,-31.441 z"
   id="path30" /> </g> <g
   id="g42"> <g
   id="g38"> <rect
   x="240.93201"
   y="315.896"
   style="fill:#7d868c"
   width="21.806999"
   height="40.332001"
   id="rect34" /> <rect
   x="240.93201"
   y="356.228"
   style="fill:#333e48"
   width="21.806999"
   height="8.6660004"
   id="rect36" /> </g> <path
   style="fill:#dadbdc"
   d="m 220.393,258.125 c 0,-17.365 14.077,-31.441 31.442,-31.441 17.365,0 31.442,14.076 31.442,31.441 v 37.232 c 0,17.365 -14.077,31.441 -31.442,31.441 -17.365,0 -31.442,-14.076 -31.442,-31.441 v -37.232 z"
   id="path40" /> </g> <path
   style="fill:#dadbdc"
   d="m 363.014,214.971 c 0,-8.082 -3.428,-15.359 -8.904,-20.471 -0.824,-36.938 -20.643,-69.186 -50.075,-87.369 0.206,-1.367 0.313,-2.766 0.313,-4.191 0,-15.463 -12.536,-28 -28,-28 -2.433,0 -4.793,0.313 -7.043,0.895 -5.129,-5.787 -12.615,-9.439 -20.957,-9.439 -8.904,0 -16.832,4.16 -21.96,10.639 -8.49,-8.395 -20.157,-13.58 -33.04,-13.58 -10.281,0 -19.785,3.311 -27.523,8.912 -5.111,-5.48 -12.391,-8.912 -20.477,-8.912 -12.553,0 -23.176,8.262 -26.73,19.643 -6.646,-3.598 -14.258,-5.643 -22.347,-5.643 -17.181,0 -32.202,9.221 -40.398,22.983 -2.646,-1.667 -5.77,-2.646 -9.128,-2.646 -2.074,0 -4.053,0.387 -5.893,1.061 -2.463,-3.594 -6.595,-5.955 -11.28,-5.955 -4.256,0 -8.056,1.945 -10.563,4.995 C 18.406,97.83 17.795,97.792 17.175,97.792 7.689,97.791 0,105.48 0,114.965 c 0,9.485 7.689,17.174 17.174,17.174 2.561,0 4.979,-0.578 7.158,-1.588 -1.959,3.767 -3.095,8.03 -3.149,12.557 -10.39,8.621 -17.009,21.629 -17.009,36.185 0,12.426 4.832,23.719 12.707,32.123 -2.387,5.631 -3.707,11.824 -3.707,18.326 0,24.064 18.092,43.893 41.412,46.658 18.527,16.152 42.749,25.938 69.259,25.938 h 0.979 c 3.47,1.541 7.309,2.404 11.35,2.404 4.041,0 7.88,-0.863 11.35,-2.404 h 8.961 c 9.014,8.406 21.104,13.559 34.4,13.559 13.299,0 25.387,-5.152 34.401,-13.559 h 23.411 c 16.447,0 32.014,-3.768 45.887,-10.484 3.299,0.732 6.723,1.133 10.242,1.133 25.957,0 47,-21.043 47,-47 0,-2.77 -0.254,-5.477 -0.713,-8.113 7.196,-5.067 11.901,-13.435 11.901,-22.903 z"
   id="path44" /> <g
   id="g54"> <path
   style="fill:#5c6670"
   d="m 386.346,92.971 c 23.197,0 42.002,18.805 42.002,42.004 0,23.195 -18.805,42 -42.002,42 h -49.733 c -23.196,0 -42.001,-18.805 -42.001,-42 0,-23.199 18.805,-42.004 42.001,-42.004 0,0 49.733,0 49.733,0 z"
   id="path46" /> <circle
   style="fill:#333e48"
   cx="367.01501"
   cy="124.453"
   r="6.487"
   id="circle48" /> <path
   style="fill:#dadbdc"
   d="m 353.49,70.43 c -5.527,0 -10.53,2.242 -14.151,5.863 -5.103,-6.869 -13.276,-11.322 -22.491,-11.322 -15.464,0 -28,12.537 -28,28 0,0.154 0.01,0.305 0.012,0.457 -22.885,3.162 -40.512,22.789 -40.512,46.543 0,25.957 21.043,47 47,47 3.945,0 7.774,-0.492 11.436,-1.408 3.217,6.748 10.08,11.424 18.053,11.424 11.053,0 20.012,-8.961 20.012,-20.012 0,-6.365 -2.982,-12.025 -7.615,-15.689 3.264,-6.4 5.115,-13.639 5.115,-21.314 0,-9.412 -2.777,-18.17 -7.542,-25.521 2.681,-2.244 4.937,-4.977 6.625,-8.066 3.357,2.543 7.525,4.07 12.06,4.07 11.052,0 20.012,-8.961 20.012,-20.012 0,-11.051 -8.962,-20.013 -20.014,-20.013 z"
   id="path50" /> <path
   style="fill:#5c6670"
   d="m 318.014,128.896 4.334,19.998 c 1.077,4.971 -2.079,9.873 -7.05,10.951 -4.971,1.076 -9.873,-2.08 -10.95,-7.051 -0.285,-1.313 -0.262,-2.666 0,-3.9 l 4.334,-19.998 c 0.559,-2.578 3.1,-4.215 5.678,-3.656 1.885,0.408 3.268,1.885 3.654,3.656 z"
   id="path52" /> </g> </g> </g>

</svg>
